<?xml version="1.0" standalone="no"?>
<!DOCTYPE svg PUBLIC "-//W3C//DTD SVG 1.1//EN" "http://www.w3.org/Graphics/SVG/1.1/DTD/svg11.dtd" >
<svg xmlns="http://www.w3.org/2000/svg">
<metadata>Generated by IcoMoon</metadata>
<defs>
<font id="simple" horiz-adv-x="1024">
<font-face units-per-em="1024" ascent="960" descent="-64" />
<missing-glyph horiz-adv-x="1024" />
<glyph unicode="&#x20;" horiz-adv-x="512" d="" />
<glyph unicode="&#xe900;" glyph-name="armchair" horiz-adv-x="1156" d="M832.149 185.978h-508.135c-9.117 0-16.516 7.399-16.516 16.516v268.288c0 74.983-61.011 135.928-135.961 135.928-58.17 0-105.472-47.269-105.472-105.439 0-44.726 36.369-81.061 81.061-81.061 33.924 0 61.539 27.615 61.539 61.539 0 25.336-20.612 45.948-45.948 45.948-9.117 0-16.516 7.399-16.516 16.516s7.399 16.516 16.516 16.516c43.537 0 78.98-35.411 78.98-78.98 0-52.158-42.413-94.571-94.571-94.571-62.893 0-114.093 51.2-114.093 114.093 0 76.371 62.134 138.471 138.471 138.471 93.184 0 168.993-75.809 168.993-168.96v-251.772h475.136v251.772c0 93.151 75.809 168.96 168.96 168.96 76.371 0 138.471-62.133 138.471-138.471 0-62.893-51.2-114.093-114.093-114.093-52.125 0-94.538 42.413-94.538 94.571 0 43.537 35.411 78.98 78.947 78.98 9.117 0 16.516-7.399 16.516-16.516s-7.399-16.516-16.516-16.516c-25.336 0-45.915-20.612-45.915-45.948 0-33.924 27.582-61.539 61.506-61.539 44.726 0 81.061 36.369 81.061 81.061 0 58.17-47.302 105.439-105.439 105.439-74.983 0-135.928-60.978-135.928-135.928v-268.288c0-9.117-7.366-16.516-16.516-16.516zM960.945 27.473h-762.154c-37.591 0-68.146 30.588-68.146 68.146v308.059c0 9.117 7.399 16.516 16.516 16.516s16.516-7.399 16.516-16.516v-308.059c0-19.357 15.789-35.113 35.113-35.113h762.154c19.357 0 35.113 15.789 35.113 35.113v308.059c0 9.117 7.399 16.516 16.516 16.516s16.516-7.399 16.516-16.516v-308.059c0-37.558-30.555-68.146-68.146-68.146zM832.135 325.87h-508.136c-9.117 0-16.516 7.399-16.516 16.516s7.399 16.516 16.516 16.516h508.169c9.117 0 16.516-7.399 16.516-16.516s-7.399-16.516-16.549-16.516zM324-26.145c-9.117 0-16.516 7.399-16.516 16.516v40.531c0 9.117 7.399 16.516 16.516 16.516s16.516-7.399 16.516-16.516v-40.531c0-9.117-7.399-16.516-16.516-16.516zM832.129-26.145c-9.117 0-16.516 7.399-16.516 16.516v40.531c0 9.117 7.399 16.516 16.516 16.516s16.516-7.399 16.516-16.516v-40.531c0-9.117-7.366-16.516-16.516-16.516zM943.53 606.72c-9.117 0-16.516 7.399-16.516 16.516v107.652c0 89.914-73.133 163.047-163.047 163.047h-368.211c-89.913 0-163.047-73.133-163.047-163.047v-107.652c0-9.117-7.399-16.516-16.516-16.516s-16.516 7.399-16.516 16.516v107.652c0 108.082 87.965 196.079 196.079 196.079h368.211c108.082 0 196.079-87.965 196.079-196.079v-107.652c0-9.117-7.366-16.516-16.516-16.516z" />
<glyph unicode="&#xe901;" glyph-name="bag" d="M879.275 696.94c-0.939 11.087-10.278 19.582-21.405 19.473h-162.676v61.647c0 100.485-81.463 181.94-181.941 181.94-100.485 0-181.939-81.455-181.939-181.94v-61.647h-162.675c-11.079-0.042-20.326-8.453-21.405-19.473l-56.079-644.716c-2.55-29.891 7.55-59.491 27.86-81.589 20.301-22.091 48.938-34.656 78.946-34.632h630.793c30.010-0.024 58.648 12.541 78.947 34.632 20.309 22.098 30.42 51.698 27.87 81.589l-56.296 644.716zM374.122 778.060c0 76.84 62.293 139.131 139.131 139.131 76.841 0 139.131-62.291 139.131-139.131v-61.647h-278.262v61.647zM876.063-0.427c-12.107-13.329-29.307-20.876-47.309-20.76h-631.011c-18.002-0.010-35.175 7.54-47.349 20.801-12.165 13.271-18.211 31.037-16.647 48.971l54.365 625.018h143.202v-133.563c-34.423-10.592-55.92-44.766-50.56-80.384 5.351-35.611 35.953-61.949 71.963-61.949 36.014 0 66.608 26.337 71.967 61.949 5.352 35.618-16.145 69.792-50.562 80.384v133.78h278.262v-133.78c-34.423-10.592-55.921-44.766-50.558-80.384 5.349-35.611 35.953-61.949 71.963-61.949s66.604 26.337 71.963 61.949c5.352 35.618-16.145 69.792-50.558 80.384v133.78h142.985l54.364-625.017c1.758-18.009-4.239-35.912-16.48-49.231v0zM349.508 500.227c2.13-0.287 4.287-0.287 6.42 0 15.828-1.707 27.566-15.503 26.713-31.399-0.86-15.903-14.005-28.361-29.925-28.361-15.927 0-29.070 12.459-29.923 28.361-0.853 15.896 10.878 29.693 26.715 31.399zM670.577 500.227c2.133-0.287 4.291-0.287 6.424 0 15.828-1.707 27.566-15.503 26.713-31.399-0.86-15.903-14.005-28.361-29.925-28.361-15.927 0-29.071 12.459-29.925 28.361-0.853 15.896 10.878 29.693 26.713 31.399v0z" />
<glyph unicode="&#xe902;" glyph-name="baggage" d="M913.553 507.54v20.802c0 26.567-21.621 48.188-48.188 48.188h-144.565c-26.567 0-48.188-21.621-48.188-48.188v-17.348c-54.405-7.84-96.376-54.63-96.376-111.155v-321.256c0-20.914 13.478-38.581 32.126-45.231v-19.019c0-26.567 21.618-48.188 48.188-48.188 26.567 0 48.188 21.621 48.188 48.188v16.062h160.626v-16.062c0-26.567 21.621-48.188 48.188-48.188s48.188 21.621 48.188 48.188v19.019c18.649 6.65 32.126 24.317 32.126 45.231v321.256c0 50.824-33.925 93.838-80.315 107.701zM704.738 528.342c0 8.867 7.21 16.062 16.062 16.062h144.565c8.852 0 16.062-7.195 16.062-16.062v-16.065h-176.688v16.065zM672.611 14.333c0-8.867-7.213-16.062-16.062-16.062-8.852 0-16.065 7.195-16.065 16.062v16.062h32.126v-16.062zM929.614 14.333c0-8.867-7.21-16.062-16.062-16.062s-16.062 7.195-16.062 16.062v16.062h32.123v-16.062zM961.741 78.583c0-8.867-7.213-16.062-16.062-16.062h-321.256c-8.852 0-16.062 7.195-16.062 16.062v321.256c0 44.285 36.027 80.315 80.312 80.315h192.753c44.285 0 80.315-36.030 80.315-80.315v-321.256zM672.651 415.883c-8.867 0-16.062-7.18-16.062-16.062v-273.068c0-8.882 7.195-16.062 16.062-16.062s16.062 7.18 16.062 16.062v273.068c0 8.882-7.195 16.062-16.062 16.062zM785.062 415.883c-8.867 0-16.062-7.18-16.062-16.062v-273.068c0-8.882 7.195-16.062 16.062-16.062s16.065 7.18 16.065 16.062v273.068c0 8.882-7.198 16.062-16.065 16.062zM897.533 415.883c-8.867 0-16.062-7.18-16.062-16.062v-273.068c0-8.882 7.195-16.062 16.062-16.062s16.062 7.18 16.062 16.062v273.068c0 8.882-7.195 16.062-16.062 16.062zM544.126 576.503h-17.685c-7.469 36.605-39.9 64.25-78.691 64.25h-32.126v144.565h32.126c8.867 0 16.062 7.18 16.062 16.063v32.126c0 26.568-21.621 48.188-48.188 48.188h-64.25c0 26.568-21.621 48.188-48.188 48.188h-32.126c-26.568 0-48.188-21.621-48.188-48.188h-64.251c-26.568 0-48.188-21.621-48.188-48.188v-32.126c0-8.883 7.196-16.063 16.063-16.063h32.126v-144.565h-48.188c-44.285 0-80.314-36.030-80.314-80.315v-449.756c0-38.776 27.644-71.222 64.251-78.691v-17.685c0-26.567 21.621-48.188 48.188-48.188s48.188 21.621 48.188 48.188v16.062h176.69v-16.062c0-26.567 21.621-48.188 48.188-48.188s48.188 21.621 48.188 48.188v17.685c36.608 7.469 64.25 39.9 64.25 78.691v433.694h16.065c8.867 0 16.062 7.18 16.062 16.062 0 8.885-7.195 16.065-16.062 16.065zM271.059 897.757h32.126c8.849 0 16.062-7.196 16.062-16.063h-64.251c0 8.867 7.212 16.063 16.063 16.063zM142.557 817.443v16.063c0 8.867 7.212 16.063 16.063 16.063h257.004c8.852 0 16.062-7.196 16.062-16.063v-16.063h-289.129zM383.497 785.318v-144.565h-16.062v144.565h16.062zM335.309 785.318v-144.565h-96.376v144.565h96.376zM206.808 785.318v-144.565h-16.063v144.565h16.063zM158.62 512.25c8.867 0 16.063 7.18 16.063 16.065v9.412l16.063-16.062v-121.853h-64.251v121.853l16.063 16.062v-9.412c0-8.885 7.196-16.065 16.063-16.065zM158.62 14.306c0-8.867-7.212-16.062-16.063-16.062s-16.063 7.195-16.063 16.062v16.062h32.126v-16.062zM431.685 14.306c0-8.867-7.21-16.062-16.062-16.062s-16.062 7.195-16.062 16.062v16.062h32.123v-16.062zM495.938 110.682c0-26.567-21.621-48.188-48.188-48.188h-337.319c-26.568 0-48.188 21.621-48.188 48.188v449.756c0 26.57 21.62 48.188 48.188 48.188h32.125v-32.123c-4.257 0-8.353-1.687-11.356-4.707l-32.126-32.126c-3.020-3.003-4.706-7.084-4.706-11.354v-144.565c0-8.885 7.196-16.065 16.063-16.065h96.376c8.867 0 16.063 7.18 16.063 16.065v144.565c0 4.271-1.687 8.352-4.706 11.354l-32.125 32.126c-3.004 3.021-7.1 4.707-11.356 4.707v32.123h273.068c26.567 0 48.188-21.618 48.188-48.188v-449.756zM447.738 544.352h-112.441c-8.867 0-16.062-7.18-16.062-16.062s7.195-16.062 16.062-16.062h112.441c8.867 0 16.062 7.18 16.062 16.062s-7.195 16.062-16.062 16.062zM303.179 447.991h48.188c8.867 0 16.065 7.18 16.065 16.065 0 8.882-7.198 16.062-16.065 16.062h-48.188c-8.865 0-16.062-7.18-16.062-16.062 0-8.885 7.196-16.065 16.062-16.065zM447.777 480.117h-32.126c-8.867 0-16.062-7.18-16.062-16.062 0-8.885 7.195-16.065 16.062-16.065h32.126c8.867 0 16.062 7.18 16.062 16.065 0 8.882-7.195 16.062-16.062 16.062zM367.456 223.118h-128.504c-26.568 0-48.188-21.621-48.188-48.188v-64.25c0-8.885 7.196-16.065 16.063-16.065h128.502c26.567 0 48.188 21.621 48.188 48.188v64.253c0 8.882-7.195 16.062-16.062 16.062zM287.141 126.741h-64.251v48.188c0 8.867 7.212 16.062 16.063 16.062h48.188v-64.25zM351.392 142.803c0-8.867-7.21-16.062-16.062-16.062h-16.062v64.25h32.123v-48.188z" />
<glyph unicode="&#xe903;" glyph-name="bread" d="M736.557 504.314c-10.346 0-18.746-8.4-18.746-18.746s8.4-18.746 18.746-18.746c10.346 0 18.746 8.4 18.746 18.746s-8.397 18.746-18.746 18.746zM970.63 910.847c-66.397 66.4-300.931-77.779-378.803-130.020-10.144-6.814-10.95-2.993-27.725-3.988-0.086-0.002-1.069-0.052-1.085-0.054-0.166-0.011-0.81-0.068-1.056-0.099-27.901-2.218-55.142-15.309-76.819-36.987-35.533-35.533-30.963-64.016-40.298-72.846-113.030-107.685-105.475-103.119-115.165-105.759-20.862-5.715-40.437-17.28-56.603-33.443-20.786-20.787-33.836-47.018-36.74-73.85-0.968-8.886-3.394-10.925-8.248-17.242-64.957-85.178-139.234-200.96-175.845-301.798-26.184-72.118-26.97-121.178-2.334-145.811 49.945-49.946 193.18 1.459 258.567 29.68 132.258 57.085 269.106 150.826 375.464 257.194 106.333 106.323 200.048 243.363 257.11 375.98 28.125 65.357 79.584 209.044 29.581 259.043zM612.714 749.698c20.95 14.055 42.051 27.501 62.883 40.088 31.075-22.916 57.21-47.805 74.23-70.836 18.803-25.436 18.096-37.445 17.181-38.754-0.925-1.318-12.029-6.096-42.576 2.989-40.061 11.919-83.712 38.196-116.877 63.362 1.731 0.964 3.456 2.008 5.158 3.152zM463.331 632.666c40.288-25.622 80.195-59.574 108.717-92.797 33.043-38.493 38.323-61.571 35.664-66.182-4.464-7.731-24.544-12.778-59.322-6.637-38.707 6.838-85.28 25.184-131.133 51.654-15.341 8.864-29.952 18.288-43.686 28.118l89.76 85.843zM248.462 401.318c15.289-8.221 30.748-17.766 46.119-28.515 35.304-24.72 65.118-52.326 83.956-77.728 18.986-25.597 18.291-37.67 17.363-38.995-0.922-1.318-12.038-6.096-42.573 2.989-30.314 9.018-66.451 27.597-101.759 52.317-15.54 10.88-29.959 22.285-43.050 34.019 12.778 18.739 26.154 37.459 39.943 55.914zM906.611 666.619c-55.254-128.417-146.077-261.195-249.178-364.289-103.136-103.146-235.741-194.003-363.812-249.28-82.403-35.568-141.010-47.494-177.013-47.494-21.047 0-34.374 4.080-40.191 9.901-20.595 20.592 1.455 128.934 111.152 298.432 13.108-11.459 27.319-22.592 42.497-33.213 38.522-26.973 78.499-47.408 112.571-57.542 29.040-8.637 66.592-13.386 83.968 11.437 9.635 13.75 14.342 39.283-17.955 82.835-21.178 28.55-54.051 59.13-92.575 86.109-15.476 10.822-31.078 20.531-46.581 29.027 2.045 5.245 3.429 10.986 4.106 17.213 1.989 18.374 11.212 36.624 25.976 51.386 11.42 11.421 24.961 19.635 40.34 23.901 18.070-13.722 37.728-26.746 58.586-38.797 60.886-35.155 128.618-59.552 178.157-59.552 29.213 0 52.096 8.486 63.517 28.253 29.469 51.082-66.672 151.485-155.024 208.272 2.624 7.9 4.941 28.421 26.49 49.971 13.331 13.327 29.942 22.277 46.525 25.256 42.301-37.090 102.205-75.319 155.574-91.195 29.069-8.647 66.598-13.38 83.974 11.443 26.346 37.635-23.638 101.532-87.152 151.562 143.498 81.332 218.102 89.533 233.552 74.082 15.795-15.78 18.832-86.79-37.504-217.716zM704.438 439.459c-8.019 6.55-19.827 5.36-26.374-2.659-23.005-28.154-47.754-55.507-73.683-81.44-20.966-20.986-43.331-41.53-66.474-61.059-7.914-6.678-8.912-18.502-2.237-26.413s18.499-8.912 26.413-2.237c23.949 20.211 47.107 41.482 68.81 63.206 26.774 26.771 52.406 55.098 76.202 84.224 6.547 8.019 5.36 19.824-2.656 26.378z" />
<glyph unicode="&#xe904;" glyph-name="check" horiz-adv-x="1434" d="M1261.2 932.4l-751.6-704.6-339.8 297.2-134.8-154 479.4-419.6 886.8 831.4-140 149.6z" />
<glyph unicode="&#xe905;" glyph-name="chevron-down" horiz-adv-x="1638" d="M349.616 900.016c-79.981 79.979-209.652 79.979-289.632 0s-79.979-209.651 0-289.632l289.632 289.632zM819.2 140.8l-144.816-144.816c38.408-38.406 90.499-59.984 144.816-59.984s106.408 21.578 144.816 59.984l-144.816 144.816zM1578.416 610.384c79.978 79.981 79.978 209.652 0 289.632-79.981 79.979-209.652 79.979-289.632 0l289.632-289.632zM59.984 610.384l614.399-614.4 289.632 289.632-614.4 614.399-289.632-289.632zM964.016-4.016l614.4 614.4-289.632 289.632-614.4-614.399 289.632-289.632z" />
<glyph unicode="&#xe906;" glyph-name="chevron-right" horiz-adv-x="597" d="M72.833 904.833l-60.333-60.333 396.5-396.5-396.5-396.5 60.333-60.333 456.833 456.833-456.833 456.833z" />
<glyph unicode="&#xe907;" glyph-name="comb" horiz-adv-x="1052" d="M354.027 542.928c-3.133 3.124-7.457 5.056-12.233 5.056s-9.099-1.932-12.233-5.057v0l-152.908-152.908c-2.748-3.054-4.429-7.115-4.429-11.57 0-9.568 7.757-17.325 17.325-17.325 4.454 0 8.516 1.681 11.585 4.443l-0.016-0.014 152.908 152.88c3.124 3.133 5.056 7.457 5.056 12.233s-1.932 9.099-5.057 12.233v0zM402.958 591.83c-3.135 3.132-7.465 5.069-12.246 5.069-9.571 0-17.329-7.758-17.329-17.329 0-4.789 1.942-9.124 5.082-12.26v0c3.098-2.94 7.295-4.748 11.915-4.748 9.568 0 17.325 7.757 17.325 17.325 0 4.633-1.819 8.842-4.781 11.95l0.007-0.007zM604.741 793.669c-3.13 3.131-7.455 5.068-12.233 5.068s-9.102-1.937-12.233-5.068l-152.88-152.908c-2.678-3.035-4.312-7.046-4.312-11.438 0-9.568 7.757-17.325 17.325-17.325 4.399 0 8.416 1.64 11.471 4.341l-0.018-0.016 152.88 152.88c3.124 3.133 5.056 7.457 5.056 12.233s-1.932 9.099-5.057 12.233v0zM934.967 500.113c3.131-3.131 7.456-5.067 12.233-5.067 9.554 0 17.3 7.745 17.3 17.3 0 4.777-1.936 9.102-5.067 12.233v0l-143.858 143.858 178.563-114.384c2.651-1.735 5.897-2.768 9.385-2.768 9.553 0 17.297 7.744 17.297 17.297 0 4.791-1.948 9.127-5.095 12.26l-317.856 317.801c-15.714 15.678-37.403 25.373-61.357 25.373s-45.643-9.695-61.359-25.374l-503.474-503.502c-15.678-15.714-25.373-37.403-25.373-61.357s9.695-45.643 25.374-61.359l317.798-317.825c3.133-3.148 7.469-5.096 12.26-5.096 9.553 0 17.297 7.744 17.297 17.297 0 3.488-1.032 6.735-2.808 9.452l0.041-0.066-114.384 178.536 143.858-143.858c3.131-3.131 7.456-5.067 12.233-5.067 9.554 0 17.3 7.745 17.3 17.3 0 4.777-1.936 9.102-5.067 12.233v0l-244.653 244.625 24.493 24.465 244.598-244.625c3.131-3.131 7.456-5.067 12.233-5.067 9.554 0 17.3 7.745 17.3 17.3 0 4.777-1.936 9.102-5.067 12.233v0l-244.57 244.625 24.438 24.465 244.653-244.653c3.129-3.122 7.449-5.053 12.219-5.053 9.554 0 17.3 7.745 17.3 17.3 0 4.784-1.942 9.115-5.080 12.246v0l-244.625 244.625 24.465 24.465 244.625-244.653c3.131-3.131 7.456-5.067 12.233-5.067 9.554 0 17.3 7.745 17.3 17.3 0 4.777-1.936 9.102-5.067 12.233v0l-244.625 244.653 24.465 24.438 244.625-244.625c3.131-3.131 7.456-5.067 12.233-5.067 9.554 0 17.3 7.745 17.3 17.3 0 4.777-1.936 9.102-5.067 12.233v0l-244.653 244.653 24.493 24.438 244.598-244.625c3.131-3.131 7.456-5.067 12.233-5.067 9.554 0 17.3 7.745 17.3 17.3 0 4.777-1.936 9.102-5.067 12.233v0l-244.598 244.625 24.465 24.465 244.598-244.653c3.132-3.128 7.456-5.063 12.233-5.063 9.56 0 17.309 7.75 17.309 17.309 0 4.783-1.94 9.113-5.077 12.246v0l-244.625 244.625 24.465 24.438 244.653-244.598c3.161-3.344 7.627-5.425 12.579-5.425 9.553 0 17.297 7.744 17.297 17.297 0 4.959-2.087 9.431-5.43 12.585l-0.009 0.008-244.625 244.598 24.465 24.465 244.625-244.598c3.091-2.922 7.272-4.718 11.873-4.718 9.553 0 17.297 7.744 17.297 17.297 0 4.594-1.791 8.77-4.713 11.867l0.008-0.009-244.653 244.653 24.493 24.438 244.625-244.625c3.131-3.131 7.456-5.067 12.233-5.067 9.554 0 17.3 7.745 17.3 17.3 0 4.777-1.936 9.102-5.067 12.233v0l-244.653 244.625 24.493 24.465 244.598-244.625zM96.118 296.891c-9.429 9.447-15.26 22.488-15.26 36.892s5.831 27.445 15.261 36.892l503.558 503.503c9.447 9.429 22.488 15.26 36.892 15.26s27.445-5.831 36.892-15.261l204.799-204.799-178.536 114.384c-2.643 1.722-5.878 2.746-9.352 2.746-4.779 0-9.105-1.938-12.235-5.071l-489.223-489.251c-3.133-3.131-5.071-7.457-5.071-12.235 0-3.474 1.024-6.708 2.787-9.419l-0.041 0.067 114.384-178.508-204.8 204.8z" />
<glyph unicode="&#xe908;" glyph-name="cross" d="M84.833 917.833c-23.563-0.005-42.662-19.107-42.662-42.671 0-12.029 4.977-22.895 12.984-30.652l896.011-896.011c7.777-8.090 18.691-13.116 30.779-13.116 23.567 0 42.671 19.104 42.671 42.671 0 12.088-5.026 23.001-13.102 30.765l-0.014 0.013-896 896c-7.768 8.021-18.636 13-30.667 13v0zM980.5 917.667c-11.521-0.331-21.849-5.178-29.326-12.825l-896.008-896.008c-8.091-7.778-13.117-18.692-13.117-30.78 0-23.567 19.104-42.671 42.671-42.671 12.088 0 23.002 5.026 30.766 13.103l0.013 0.014 896 896c7.926 7.754 12.841 18.559 12.841 30.512 0 23.567-19.104 42.671-42.671 42.671-0.411 0-0.821-0.006-1.23-0.017l0.060 0.001z" />
<glyph unicode="&#xe909;" glyph-name="diaper" horiz-adv-x="1399" d="M1347.635 828.145h-28.262v73.771c0 13.227-10.725 23.951-23.955 23.951h-1185.119c-13.227 0-23.951-10.724-23.951-23.951v-73.531h-28.263c-13.227 0-23.951-10.724-23.951-23.951v-206.222c0-13.227 10.724-23.951 23.951-23.951h28.502c6.71-340.292 288.009-610.714 628.301-604.003 330.844 6.523 597.484 273.159 604.003 604.003h28.501c13.23 0 23.955 10.725 23.955 23.951v205.982c0 13.135-10.578 23.82-23.712 23.952zM82.036 621.922v158.32h271.851c43.715 0 79.159-35.442 79.159-79.16s-35.444-79.16-79.159-79.16h-271.851zM503.583 52.115v-0.239c-167.894 63.324-296.253 201.888-346.578 374.122 135.76 60.628 294.965-0.28 355.593-136.042 34.106-76.377 30.775-164.267-9.015-237.841zM902.137 52.115l-0.242-0.239c-71.369 130.133-23.736 293.482 106.394 364.855 74.243 40.721 163.338 44.063 240.425 9.028-50.452-172.056-178.794-310.415-346.576-373.644zM1260.459 473.231c-161.212 67.195-346.477-8.738-414.095-169.875-36.041-85.9-32.464-183.31 9.786-266.329-100.168-28.187-206.172-28.187-306.34 0 79.401 155.955 17.34 346.754-138.615 426.155-82.879 42.199-180.11 45.855-265.926 10.001-6.578 33.225-10.185 66.97-10.778 100.837h219.397c70.175 0 127.061 56.887 127.061 127.062s-56.887 127.063-127.061 127.063h-219.637v49.819h1137.216v-49.58h-219.634c-70.175 0-127.061-56.888-127.061-127.063s56.887-127.062 127.061-127.062h219.395c-0.556-33.932-4.161-67.744-10.769-101.028zM1051.832 621.683c-43.718 0-79.159 35.442-79.159 79.16s35.441 79.16 79.159 79.16h271.852l0.717-158.319h-272.568z" />
<glyph unicode="&#xe90a;" glyph-name="double-chevron" d="M115.5 904.833l-60.333-60.333 396.5-396.5-396.5-396.5 60.333-60.333 456.833 456.833-456.833 456.833zM630.667 901.333l-66.667-53.333 320-400-320-400 66.667-53.333 362.667 453.333-362.667 453.333z" />
<glyph unicode="&#xe90b;" glyph-name="dumbbell" horiz-adv-x="1755" d="M1610.147 585.807h-37.781v102.924c0 51.838-44.827 94.030-99.903 94.030h-67.257v34.448c0 51.838-44.827 94.030-99.903 94.030h-74.167c-55.077 0-99.908-42.192-99.908-94.030v-231.025h-507.007v231.025c0 51.838-44.827 94.030-99.903 94.030h-74.167c-55.078 0-99.906-42.192-99.906-94.030v-64.028h-67.231c-55.078 0-99.906-42.192-99.906-94.030v-85.91h-37.8c-53.221 0.022-96.545-42.169-96.545-94.007v-69.073c0-51.839 43.324-94.028 96.545-94.028h37.776v-102.927c0-51.839 44.829-94.028 99.906-94.028h67.231v-34.45c0-51.839 44.828-94.028 99.906-94.028h74.166c55.077 0 99.908 42.189 99.908 94.028v243.595h507.007v-243.595c0-51.839 44.827-94.028 99.903-94.028h74.167c55.077 0 99.908 42.189 99.908 94.028v64.029h67.252c55.077 0 99.908 42.194 99.908 94.028v85.889h37.776c53.243 0 96.544 42.194 96.544 94.032v69.071c0.049 51.838-43.276 94.030-96.519 94.030zM145.307 371.444c-20.827 0-37.776 17.364-37.776 38.717v69.073c0 21.35 16.949 38.718 37.776 38.718h37.776v-146.508h-37.776zM283.013 174.49c-22.685 0-41.138 17.369-41.138 38.717v445.966c0 21.35 18.453 38.718 41.138 38.718h67.231v-523.382l-67.231-0.020zM565.453 84.729c0-21.348-18.452-38.717-41.136-38.717h-74.167c-22.685 0-41.138 17.369-41.138 38.717v732.48c0 21.35 18.453 38.718 41.138 38.718h74.167c22.684 0 41.136-17.368 41.136-38.718v-732.48zM624.221 383.634v147.238h507.007v-147.238h-507.007zM1346.438 84.729c0-21.348-18.452-38.717-41.136-38.717h-74.167c-22.684 0-41.136 17.369-41.136 38.717v732.48c0 21.35 18.452 38.718 41.136 38.718h74.167c22.684 0 41.136-17.368 41.136-38.718v-732.48zM1513.599 242.786c0-21.348-18.452-38.717-41.136-38.717h-67.257v523.381h67.257c22.684 0 41.136-17.368 41.136-38.718v-445.946zM1647.943 422.707c0-21.353-16.945-38.722-37.776-38.722h-37.776v146.511h37.776c20.831 0 37.776-17.368 37.776-38.718v-69.071z" />
<glyph unicode="&#xe90c;" glyph-name="thumb-down" horiz-adv-x="1195" d="M223.921 455.5c-13.684 0-24.88 11.35-24.88 25.222s11.196 25.221 24.88 25.221c13.684 0 24.88-11.349 24.88-25.221s-11.196-25.222-24.88-25.222zM1144.474 405.123c0-55.74-44.535-100.887-99.524-100.887h-185.847c28.86-74.656 40.303-162.428 38.067-240.868-0.503-14.882-0.998-23.458-1.749-29.005-1.237-54.477-45.526-98.364-99.515-98.364-54.985 0-99.519 45.15-99.519 100.89v25.216c0 159.404-202.024 249.193-354.537 287.53-11.445-26.735-37.818-45.399-68.419-45.399h-248.55c-13.684 0-24.88 11.35-24.88 25.222v605.32c0 13.872 11.196 25.222 24.88 25.222h248.798c30.353 0 56.477-18.412 68.171-44.895 12.688 3.279 24.381 6.305 35.081 9.332 86.83 22.952 134.6 35.563 251.037 35.563h267.709c54.98 0 99.516-45.147 99.516-100.887 0-20.681-6.221-40.102-16.922-55.991 38.315-13.62 66.679-50.948 66.679-95.338 0-20.682-5.973-40.103-16.666-56.245 38.315-13.619 66.423-50.696 66.423-95.085 0-20.682-6.212-40.103-16.913-55.992 38.562-13.62 66.679-50.948 66.679-95.338zM298.557 884.335c0 13.872-11.196 25.222-24.88 25.222h-223.918v-554.877h223.918c13.684 0 24.88 11.35 24.88 25.222v504.433zM1044.949 455.567c-53.239 0-66.176 0-124.399 0-13.679 0-24.875 11.349-24.875 25.222s11.196 25.221 24.875 25.221h74.641c27.366 0 49.758 22.7 49.758 50.444s-22.391 50.443-49.758 50.443h-124.399c-13.687 0-24.88 11.349-24.88 25.222s11.192 25.221 24.88 25.221h74.641c27.119 0 49.758 21.943 49.758 50.444 0 27.744-22.391 50.443-49.758 50.443-53.248 0-66.185 0-124.401 0-13.684 0-24.88 11.349-24.88 25.222s11.196 25.221 24.88 25.221h74.643c27.366 0 49.758 22.7 49.758 50.443s-22.391 50.444-49.758 50.444h-267.461c-109.968 0-153.010-11.35-238.597-34.049-12.44-3.279-26.372-7.062-41.3-10.845v-464.584c180.13-43.381 398.077-149.565 398.077-337.973v-25.216c0-27.75 22.392-50.449 49.76-50.449s49.76 22.699 49.76 50.449c0 10.846 13.437 145.526-40.554 267.347h-83.845c-13.684 0-24.88 11.35-24.88 25.222s11.196 25.221 24.88 25.221c17.416 0 295.071 0 323.436 0 27.366 0 49.758 22.7 49.758 50.444s-22.391 50.443-49.758 50.443zM223.921 556.5c-13.684 0-24.88 11.35-24.88 25.222v201.773c0 13.872 11.196 25.222 24.88 25.222s24.88-11.35 24.88-25.222v-201.773c0-13.872-11.196-25.222-24.88-25.222z" />
<glyph unicode="&#xe90d;" glyph-name="thumb-up" horiz-adv-x="1158" d="M257.209 441.202c-12.4 0-22.546-10.288-22.546-22.858s10.146-22.857 22.546-22.857c12.4 0 22.546 10.287 22.546 22.857s-10.146 22.858-22.546 22.858zM1091.459 486.857c0 50.514-40.359 91.431-90.194 91.431h-168.423c26.154 67.657 36.523 147.2 34.497 218.283-0.455 13.485-0.902 21.257-1.587 26.287-1.123 49.373-41.26 89.143-90.185 89.143-49.831 0-90.189-40.917-90.189-91.431v-22.857c0-144.455-183.082-225.826-321.297-260.569-10.371 24.227-34.272 41.145-62.005 41.145h-225.246c-12.4 0-22.546-10.288-22.546-22.858v-548.569c0-12.573 10.146-22.861 22.546-22.861h225.475c27.509 0 51.185 16.687 61.781 40.687 11.5-2.971 22.095-5.713 31.793-8.459 78.688-20.793 121.982-32.222 227.505-32.222h242.611c49.826 0 90.186 40.919 90.186 91.434 0 18.738-5.639 36.337-15.338 50.737 34.721 12.341 60.427 46.174 60.427 86.4 0 18.744-5.415 36.341-15.106 50.971 34.721 12.341 60.195 45.944 60.195 86.169 0 18.744-5.63 36.341-15.329 50.742 34.945 12.342 60.427 46.172 60.427 86.398zM324.849 52.573c0-12.573-10.146-22.861-22.546-22.861h-202.924v502.86h202.924c12.4 0 22.546-10.288 22.546-22.858v-457.141zM1001.269 441.141c-48.247 0-59.972 0-112.735 0-12.395 0-22.541-10.287-22.541-22.858s10.146-22.857 22.541-22.857h67.645c24.798 0 45.095-20.57 45.095-45.716s-20.291-45.715-45.095-45.715h-112.735c-12.403 0-22.546-10.287-22.546-22.858s10.142-22.857 22.546-22.857h67.645c24.575 0 45.095-19.885 45.095-45.716 0-25.143-20.291-45.715-45.095-45.715-48.256 0-59.981 0-112.737 0-12.4 0-22.546-10.287-22.546-22.858s10.146-22.857 22.546-22.857h67.647c24.798 0 45.095-20.569 45.095-45.713 0-25.146-20.291-45.721-45.095-45.721h-242.387c-99.66 0-138.664 10.287-216.229 30.856-11.276 2.979-23.9 6.406-37.43 9.831v421.033c163.241 39.313 360.757 135.543 360.757 306.284v22.857c0 25.143 20.292 45.716 45.095 45.716s45.095-20.57 45.095-45.716c0-9.831 12.177-131.884-36.75-242.287h-75.985c-12.4 0-22.546-10.288-22.546-22.858s10.146-22.857 22.546-22.857c15.784 0 267.409 0 293.112 0 24.798 0 45.095-20.57 45.095-45.716s-20.291-45.715-45.095-45.715zM257.209 349.67c-12.4 0-22.546-10.288-22.546-22.858v-182.855c0-12.566 10.146-22.854 22.546-22.854s22.546 10.287 22.546 22.854v182.855c0 12.57-10.146 22.858-22.546 22.858z" />
<glyph unicode="&#xe90e;" glyph-name="headphones" horiz-adv-x="1088" d="M1008.061 359.786c2.461 19.44 3.754 39.062 3.754 58.749 0 100.070-31.968 192.611-85.696 268.75 10.214 13.985 15.955 30.637 15.914 48.291-0.042 21.901-8.611 42.487-24.134 57.971-99.946 99.516-232.614 154.329-373.574 154.329-141.408 0-274.369-55.099-374.354-155.107-28.789-28.812-31.393-73.758-8.305-105.789-53.603-76.079-85.468-168.495-85.468-268.421 0-19.664 1.292-39.267 3.752-58.707-37.771-48.416-55.674-111.696-44.806-176.125 18.19-107.942 110.177-186.416 219.31-187.811 18.27-28.954 50.218-47.779 86.349-47.779 5.68 0 11.466 0.47 17.101 1.411 55.757 9.395 93.488 62.4 84.115 118.154l-60.445 358.938c-8.326 49.542-50.816 85.488-101.014 85.488-5.702 0-11.464-0.474-17.121-1.437-27.006-4.554-50.629-19.338-66.5-41.648-7.894-11.094-13.369-23.379-16.365-36.256-23.091-8.365-44.168-20.115-62.706-34.778-0.329 6.851-0.635 13.68-0.635 20.525 0 90 28.566 173.133 76.365 242.012 10.682-4.962 22.29-7.814 34.43-7.814 21.901 0 42.509 8.532 58.012 24.032 68.982 69.043 160.726 107.062 258.332 107.062 97.28 0 188.838-37.835 257.779-106.526 15.482-15.401 36.029-23.911 57.869-23.911 12.016 0 23.52 2.77 34.122 7.648 48.003-68.958 76.672-152.296 76.672-242.504 0-6.867-0.307-13.718-0.637-20.547-18.496 14.643-39.597 26.413-62.688 34.778-2.992 12.88-8.49 25.181-16.384 36.275-15.869 22.31-39.491 37.094-66.499 41.648-5.658 0.944-11.44 1.437-17.142 1.437-50.176 0-92.666-35.946-100.992-85.488l-60.458-358.931c-9.373-55.757 28.358-108.762 84.093-118.154 5.638-0.944 11.421-1.411 17.101-1.411 36.173 0 68.102 18.826 86.371 47.779 109.11 1.376 201.12 79.891 219.29 187.811 10.848 64.403-7.053 127.664-44.806 176.058zM270.223 470.253c3.465 0.592 6.93 0.88 10.316 0.88 30.104 0 55.571-21.59 60.553-51.306l60.448-358.931c5.619-33.469-17.018-65.274-50.461-70.893-27.562-4.653-53.071 9.802-64.82 32.973l-0.964 2.112c-1.148 2.483-1.988 4.717-2.77 6.931-0.881 2.768-1.806 5.517-2.297 8.426l-60.45 358.96c0 0.019 0 0.042 0 0.061-0.492 2.95-0.514 5.843-0.594 8.778 0.019 2.275 0.083 4.653 0.348 7.318l0.204 2.070c3.487 26.022 23.276 48.026 50.486 52.621zM180.016 388.538l59.098-350.858c-82.207 8.035-149.549 69.821-163.534 152.851-6.522 38.755-0.246 76.976 15.768 110.278 9.269-35.741 22.638-70.378 40.049-102.899 5.373-9.946 17.759-13.696 27.765-8.387 9.964 5.373 13.739 17.779 8.388 27.763-21.757 40.56-36.562 84.691-44.232 130.192 15.893 16.902 34.941 30.989 56.698 41.059zM831.075 706.355c-76.688 76.404-178.541 118.482-286.73 118.482-108.56 0-210.618-42.283-287.329-119.078-15.503-15.503-42.509-15.503-58.012 0-15.976 15.995-15.995 41.996-0.019 57.99 92.236 92.277 214.881 143.111 345.361 143.111 130.048 0 252.448-50.569 344.618-142.374 7.773-7.731 12.058-18.024 12.077-28.996 0.019-10.97-4.224-21.266-11.974-29.035-15.44-15.497-42.467-15.58-57.99-0.099zM736.896-9.997c-33.446 5.619-56.064 37.424-50.445 70.893l60.448 358.931c4.986 29.712 30.454 51.306 60.534 51.306 3.405 0 6.87-0.288 10.336-0.88 27.21-4.595 46.979-26.557 50.461-52.557l0.227-2.131c0.269-2.666 0.349-5.024 0.349-7.318-0.061-2.934-0.083-5.846-0.576-8.838l-60.448-358.915c-0.019-0.083-0.061-0.186-0.061-0.269-0.493-2.829-1.376-5.475-2.214-8.118-0.781-2.214-1.642-4.493-2.79-6.995l-1.149-2.458c-11.811-23.008-37.155-37.28-64.672-32.65zM1012.41 190.531c-13.984-83.008-81.325-144.835-163.514-152.829l29.549 175.405 29.53 175.408c21.757-10.048 40.806-24.157 56.678-41.014-7.69-45.667-22.595-89.958-44.454-130.682-5.373-9.965-1.622-22.416 8.365-27.766 3.075-1.661 6.419-2.438 9.677-2.438 7.302 0 14.374 3.894 18.086 10.806 17.552 32.685 31.024 67.485 40.336 103.389 15.994-33.299 22.272-71.523 15.747-110.278z" />
<glyph unicode="&#xe90f;" glyph-name="house" horiz-adv-x="1092" d="M934.277 534.267c-15.674 0-28.385-12.706-28.385-28.38v-451.731h-227.086v246.583c0 78.251-63.677 141.909-141.941 141.909s-141.941-63.663-141.941-141.909v-246.589h-227.086v451.736c0 15.673-12.711 28.38-28.386 28.38s-28.386-12.706-28.386-28.38v-480.114c0-15.674 12.711-28.378 28.386-28.378h283.858c14.929 0 27.144 11.53 28.275 26.167 0.068 0.662 0.111 1.393 0.111 2.212v274.965c0 46.953 38.206 85.15 85.169 85.15s85.169-38.199 85.169-85.15v-274.965c0-0.819 0.043-1.529 0.111-2.185 1.118-14.65 13.338-26.194 28.275-26.194h283.857c15.681 0 28.385 12.704 28.385 28.378v480.114c0 15.676-12.711 28.382-28.385 28.382zM1080.648 584.299l-517.748 370.346c-9.984 7.14-23.548 7.14-33.528 0l-517.755-370.346c-12.646-9.047-15.394-26.396-6.133-38.75s27.021-15.035 39.665-5.992l500.984 358.356 500.982-358.354c5.052-3.615 10.923-5.356 16.746-5.356 8.738 0 17.36 3.929 22.917 11.349 9.264 12.352 6.519 29.701-6.13 38.748z" />
<glyph unicode="&#xe910;" glyph-name="info" horiz-adv-x="536" d="M62.654 59.919c-35.147 0-62.654-27.199-62.654-61.957s27.507-61.962 62.654-61.962h411.073c35.148 0 62.654 27.204 62.654 61.962s-27.507 61.957-62.654 61.957h-143.646v545.55c0 34.758-27.507 61.96-62.654 61.96h-204.772c-35.147 0-62.654-27.202-62.654-61.96s27.507-61.96 62.654-61.96h143.646v-483.59h-143.646zM170.667 764.952c67.326 0 121.905 43.663 121.905 97.524s-54.579 97.524-121.905 97.524c-67.326 0-121.905-43.663-121.905-97.524s54.579-97.524 121.905-97.524z" />
<glyph unicode="&#xe911;" glyph-name="lens" d="M429.229 189.041c88.389 0 168.743 31.338 231.419 84.372l281.236-281.238c6.434-6.426 14.464-9.643 23.305-9.643s16.879 3.217 23.305 9.643c12.86 12.86 12.86 33.749 0 46.609l-281.239 281.235c52.23 62.676 84.371 143.833 84.371 231.419 0 200.081-162.314 362.396-362.395 362.396-199.277 0-362.396-163.118-362.396-362.396 0-200.081 163.119-362.396 362.396-362.396zM429.229 847.943c163.922 0 296.505-133.387 296.505-296.505 0-163.922-132.583-296.506-296.505-296.506s-296.506 133.388-296.506 296.506c0 163.118 133.388 296.505 296.506 296.505z" />
<glyph unicode="&#xe912;" glyph-name="mask" horiz-adv-x="1088" d="M482.528 716c-56.038 0-100.186-29.228-100.186-66.721 0-37.292 43.946-66.722 100.186-66.722 56.035 0 100.182 29.229 100.182 66.722s-43.946 66.721-100.182 66.721zM482.528 615.818c-38.099 0-66.723 17.536-66.723 33.461s28.422 33.461 66.723 33.461c38.096 0 66.72-17.537 66.72-33.461 0-15.724-28.624-33.461-66.72-33.461zM802.813 423.635c-51.603 22.374-103.61 12.902-118.323-21.366-14.915-34.269 13.907-78.816 65.309-100.989s103.61-12.899 118.326 21.366c14.915 34.269-13.709 78.614-65.312 100.989zM837.686 335.952c-6.25-14.515-39.507-19.354-74.582-4.032-35.075 15.117-54.224 42.733-47.974 57.248 6.25 14.512 39.507 19.35 74.582 4.029 34.874-15.318 54.224-42.934 47.974-57.245zM488.742 474.874c-31.043-47.571-83.251-75.792-139.894-75.792-56.641 0-108.849 28.422-139.892 75.792l-28.019-18.141c37.090-57.046 99.981-91.11 167.91-91.11 68.134 0 130.822 34.064 167.914 91.11l-28.019 18.141zM215.433 716.188c-56.038 0-100.183-29.228-100.183-66.721s43.943-66.721 100.183-66.721c56.239-0.202 100.183 29.229 100.183 66.721s-43.943 66.721-100.183 66.721zM215.433 616.006c-38.098 0-66.721 17.536-66.721 33.46 0 15.723 28.624 33.461 66.721 33.461s66.721-17.537 66.721-33.461c0-15.722-28.624-33.46-66.721-33.46zM665.952 621.606v306.394c0 0-149.165-89.499-317.075-89.499-167.711 0-316.877 89.499-316.877 89.499v-418.874c0-115.098 62.488-221.328 163.074-277.165 30.841-17.133 64.504-28.826 98.973-34.87 11.086-37.091 28.423-71.562 51.805-102.198 60.672-79.421 153.6-134.653 282.205-123.165 114.493 10.282 214.272 83.251 260.234 188.877l167.709 383.798c0 0-209.034-35.075-390.048 77.203zM211.2 261.19c-89.902 49.99-145.94 144.931-145.94 247.936v362.836c87.887-43.742 185.247-66.923 283.617-66.923 98.368 0 195.728 22.98 283.616 66.923v-362.836c0-103.005-55.837-197.946-145.942-247.936-83.853-46.765-191.294-46.765-275.35 0zM857.853 173.706c-41.123-94.336-130.419-159.040-232.819-168.918-98.368-9.274-192.707 31.85-252.573 110.061-18.144 23.584-31.85 49.789-41.728 77.606 6.048-0.403 98.57-6.048 193.917 52.611 85.466-0.806 137.875-82.445 147.149-138.483l32.858 5.443c-11.29 67.123-70.15 149.568-144.934 160.051 66.723 59.462 106.23 145.133 106.23 236.646v74.582c102.602-55.834 220.323-83.046 337.034-77.203l-145.133-332.397z" />
<glyph unicode="&#xe913;" glyph-name="menu" horiz-adv-x="1536" d="M0-64h1536v170.667h-1536v-170.667zM0 362.667h1536v170.667h-1536v-170.667zM0 960v-170.667h1536v170.667h-1536z" />
<glyph unicode="&#xe914;" glyph-name="present" d="M960 672.685h-202.496c14.53 9.92 27.008 19.776 35.712 28.608 51.584 51.904 51.584 136.384 0 188.288-50.11 50.432-137.534 50.496-187.71 0-27.714-27.84-101.38-141.184-91.202-216.896h-4.608c10.112 75.712-63.488 189.056-91.202 216.896-50.176 50.496-137.598 50.432-187.71 0-51.584-51.904-51.584-136.384-0.064-188.288 8.768-8.832 21.248-18.688 35.776-28.608h-202.496c-35.264 0-64-28.736-64-64v-160.001c0-17.664 14.336-32 32-32h32v-384c0-35.262 28.736-64 64-64h768c35.266 0 64 28.738 64 64v384h32c17.664 0 32 14.336 32 32v160.001c0 35.264-28.734 64-64 64zM276.16 844.461c12.992 13.056 30.208 20.224 48.512 20.224 18.24 0 35.456-7.168 48.448-20.224 43.136-43.392 86.016-154.24 71.102-169.664 0 0-2.688-2.112-11.838-2.112-44.222 0-128.64 45.952-156.224 73.728-26.816 27.008-26.816 71.040 0 98.048zM480 32.684h-352v384h352v-384zM480 480.684h-416v128.001h416v-128.001zM650.88 844.461c25.984 26.048 71.040 25.984 96.962 0 26.814-27.008 26.814-71.040 0-98.048-27.586-27.776-112-73.728-156.226-73.728-9.15 0-11.842 2.048-11.904 2.112-14.848 15.424 28.032 126.272 71.168 169.664zM896 32.684h-352v384h352v-384zM960 480.684h-416v128.001h416v-128.001z" />
<glyph unicode="&#xe915;" glyph-name="star-empty" horiz-adv-x="1109" d="M1107.81 573.028c-3.639 10.786-13.205 18.49-24.815 20.251l-346.082 47.546-155.738 302.665c-5.235 10.126-15.936 16.509-27.55 16.509s-22.315-6.383-27.55-16.729l-153.687-303.546-346.082-49.747c-11.612-1.761-21.175-9.465-24.818-20.251s-0.455-22.673 7.969-30.377l251.137-235.308-58.060-333.265c-2.049-11.226 2.732-22.451 12.295-29.056 5.236-3.742 11.612-5.722 17.987-5.722 5.009 0 9.791 1.101 14.344 3.52l308.969 158.268 309.879-156.506c4.553-2.202 9.335-3.302 14.118-3.302 16.849 0 30.737 13.427 30.737 29.717 0 2.423-0.23 4.621-0.913 6.822l-59.878 331.281 249.54 236.631c8.879 7.924 11.84 19.811 8.196 30.597zM795.883 337.28c-7.287-6.822-10.475-16.73-8.653-26.415l52.139-289.020-269.12 135.817c-8.883 4.621-19.584 4.403-28.689 0l-268.214-137.357 50.318 289.459c1.594 9.685-1.594 19.371-8.879 26.193l-217.667 204.273 300.317 43.144c10.018 1.541 18.67 7.484 22.996 16.289l133.422 263.484 135.245-262.824c4.557-8.805 13.21-14.748 23.228-16.289l300.544-41.383-216.986-205.372z" />
<glyph unicode="&#xe916;" glyph-name="star" horiz-adv-x="1109" d="M1107.81 573.028c-3.639 10.786-13.205 18.49-24.815 20.251l-346.082 47.546-155.738 302.665c-5.235 10.126-15.936 16.509-27.55 16.509s-22.315-6.383-27.55-16.729l-153.687-303.546-346.082-49.747c-11.612-1.761-21.175-9.465-24.818-20.251s-0.455-22.673 7.969-30.377l251.137-235.308-58.060-333.265c-2.049-11.226 2.732-22.451 12.295-29.056 5.236-3.742 11.612-5.722 17.987-5.722 5.009 0 9.791 1.101 14.344 3.52l308.969 158.268 309.879-156.506c4.553-2.202 9.335-3.302 14.118-3.302 16.849 0 30.737 13.427 30.737 29.717 0 2.423-0.23 4.621-0.913 6.822l-59.878 331.281 249.54 236.631c8.879 7.924 11.84 19.811 8.196 30.597z" />
<glyph unicode="&#xe917;" glyph-name="store" horiz-adv-x="1184" d="M829.602 403.072h-156.874c-42.934 0-77.846-34.917-77.846-77.85v-120.308c0-42.934 34.913-77.846 77.846-77.846h156.874c42.934 0 77.846 34.913 77.846 77.846v120.308c0 42.934-34.913 77.85-77.846 77.85zM850.831 204.914c0-11.794-9.67-21.229-21.229-21.229h-156.874c-11.794 0-21.233 9.67-21.233 21.229v120.308c0 11.797 9.673 21.233 21.233 21.233h156.874c11.794 0 21.229-9.673 21.229-21.233v-120.308zM1163.743 621.74c0 4.954-1.181 9.671-3.776 13.918l-171.734 301.952c-4.953 8.728-14.39 14.39-24.534 14.39h-754.643c-10.144 0-19.579-5.426-24.534-14.39l-171.499-301.952c-2.359-4.247-3.774-8.964-3.774-13.918 0-67.702 40.81-125.734 99.077-151.449v-497.984c0-15.57 12.739-28.307 28.309-28.307h156.401c0.236 0 0.472 0 0.708 0h219.386c0.237 0 0.472 0 0.709 0h522.281c15.57 0 28.307 12.737 28.307 28.307v494.446c0 1.181 0.004 2.124-0.234 3.067 58.503 25.715 99.551 83.981 99.551 151.921zM225.568 895.148h721.617l134.229-236.136h-989.837l133.991 236.136zM830.887 602.633c-8.964-50.956-53.55-89.641-107.1-89.641-53.546 0-98.132 38.686-107.096 89.641h214.196zM556.534 602.633c-8.964-50.956-53.546-89.641-107.096-89.641s-98.135 38.686-107.335 89.641h214.432zM67.751 602.633h214.433c-8.965-50.956-53.785-89.641-107.334-89.641-53.549-0.237-98.134 38.686-107.099 89.641zM484.822 0.617h-162.771v305.489c0 22.176 17.928 40.338 40.339 40.338h82.328c22.176 0 40.338-17.928 40.338-40.338v-305.489h-0.234zM1007.813 0.617h-466.373v305.489c0 53.313-43.409 96.955-96.955 96.955h-82.33c-53.314 0-96.955-43.405-96.955-96.955v-305.726h-100.258v455.994c3.303-0.234 6.605-0.234 9.908-0.234 57.088 0 107.571 29.016 137.294 73.127 29.723-44.111 80.206-73.127 137.295-73.127 57.085 0 107.334 29.016 137.293 73.127 29.721-44.111 80.204-73.127 137.056-73.127 57.089 0 107.337 29.016 137.059 73.127 29.725-44.111 80.208-73.127 137.293-73.127 3.305 0 6.368 0.234 9.673 0.234v-455.757zM998.139 512.753c-53.55 0-98.132 38.689-107.096 89.643h214.43c-9.198-50.72-53.784-89.643-107.334-89.643z" />
<glyph unicode="&#xe918;" glyph-name="t-shirt" horiz-adv-x="1052" d="M289.345 498.199v-533.74h489.219v533.74c48.922-6.886 174.427-67.94 174.427-67.94l83.703 198.175c-117.606 73.090-340.335 138.51-340.335 138.51-20.463-95.465-146.685-91.054-162.873-92.237-16.196 1.182-142.401-3.211-162.884 92.237 0 0-224.534-65.42-342.158-138.51l86.018-198.175c0 0 125.961 61.053 174.883 67.94zM350.512 726.394c21.148-41.777 69.569-81.146 176.202-84.343 1.923-0.065 3.442-0.080 4.42-0.162 0.765-0.048 1.545-0.088 2.35-0.088 0.802 0 1.599 0.040 2.398 0.088 0.984 0.065 2.48 0.097 4.426 0.162 106.601 3.197 155.045 42.551 176.193 84.313 58.146-18.378 190.481-62.726 279.902-111.884l-58.414-139.873c-41.836 19.371-113.735 50.779-151.145 56.149-1.53 0.216-3.075 0.327-4.599 0.327-7.788 0-17.252-2.827-23.219-8.053-7.117-6.238-13.073-15.295-13.073-24.835v-500.855h-423.993v500.858c0 9.537-5.973 18.597-13.096 24.835-5.965 5.225-14.492 8.053-22.306 8.053-1.536 0-3.527-0.111-5.055-0.327-37.473-5.373-110.059-36.907-151.965-56.263l-59.576 140.066c89.53 49.141 222.251 93.487 280.551 111.832zM516.981 758.001c-60.2-2.835-103.888-16.953-106.866-17.983-8.744-3.014-26.003-13.625-22.965-22.284 2.418-6.853 14.662-12.915 21.611-12.915 1.829 0 0.818-2.801 12.367 1.132 0.623 0.227 35.16 12.573 84.372 12.573h61.929c24.67 0 64.12-7.788 90.018-16.764 8.735-2.989 28.026 0.271 31.089 8.912 3.066 8.641-24.695 25.928-33.436 28.95-35.598 12.33-71.020 17.82-103.487 18.978-0.034 0.129-0.065 0.267-0.065 0.399-6.605 32.181 19.16 35.185 44.874 49.131 23.703 12.856 36.355 38.967 31.633 65.388-11.503 64.15-102.63 69.722-149.561 42.846-18.716-10.709-1.826-39.397 16.93-28.639 21.635 12.392 48.518 12.985 72.183 6.617 28.453-7.664 38.482-41.188 11.867-57.564-17.081-10.481-36.486-14.499-51.066-29.029-13.292-13.237-14.424-31.613-11.432-48.956 0.802-4.623 1.826-9.2 3.089-13.565 0.336-1.158-4.529-12.238-2.937-10.329 6.246-12.441 30.096-9.306 35.83 1.096 0.819 1.475-0.432 9.47-0.139 11.227-0.031-3.020-0.492-5.938-1.638-8.012-5.737-10.398-23.347-13.961-29.608-1.523-3.1 16.050 0.576 2.505-4.594 20.314z" />
<glyph unicode="&#xe919;" glyph-name="tag" d="M998.997 415.896l-483.273 482.597c-17.128 17.135-40.103 31.661-68.941 43.598-28.847 11.939-55.206 17.909-79.089 17.909h-281.178c-23.435 0-43.711-8.568-60.835-25.681-17.123-17.123-25.681-37.4-25.681-60.835v-281.178c0-23.882 5.963-50.233 17.907-79.080s26.472-51.59 43.6-68.268l483.267-483.947c16.673-16.674 36.937-25.011 60.835-25.011 23.414 0 43.934 8.337 61.505 25.011l331.875 332.545c16.674 16.681 25.003 36.941 25.003 60.826 0 23.433-8.329 43.936-24.994 61.514zM277.458 682.54c-16.908-16.899-37.291-25.353-61.175-25.353-23.875 0-44.268 8.454-61.166 25.353-16.899 16.901-25.346 37.284-25.346 61.166 0 23.885 8.447 44.275 25.346 61.166 16.9 16.901 37.291 25.355 61.166 25.355 23.885 0 44.275-8.454 61.175-25.355 16.892-16.891 25.346-37.284 25.346-61.166s-8.445-44.265-25.346-61.166z" />
<glyph unicode="&#xe91a;" glyph-name="tools" d="M665.832 441.398l130.59 130.59c21.125 21.131 47.803 37.292 77.14 46.728 23.675 7.614 45.568 20.998 63.313 38.719 30.575 30.589 47.035 71.257 46.348 114.516-0.684 43.248-18.462 83.4-50.059 113.061l-19.028 17.863-34.587-110.878c-7.632-24.439-33.738-38.129-58.181-30.515-19.516 6.094-32.629 23.916-32.629 44.349 0 4.69 0.711 9.342 2.114 13.836l34.394 110.215-26.112-4.241c-29.326-4.762-56.534-17.562-78.694-37.026-38.93-34.254-58.741-85.395-53.001-136.797 6.222-55.795-13.658-111.262-54.549-152.17l-52.667-52.649-95.648 95.648 29.419 29.421-57.889 57.889c31.072 45.768 100.391 108.127 164.71 136.675l29.109 12.92-27.461 16.125c-80.080 47.024-182.661 33.206-249.47-33.607-5.496-5.496-170.244-170.243-170.244-170.243l-11.446-11.446 11.331-11.562c9.944-10.144 6.375-30.681-7.795-44.852-14.169-14.167-34.71-17.736-44.848-7.794l-11.562 11.333-88.312-88.311 165.501-165.502 88.264 88.263-11.233 11.559c-9.866 10.153-6.268 30.663 7.858 44.788 14.124 14.125 34.631 17.724 44.784 7.858l11.562-11.234 27.666 27.666 95.651-95.648-122.937-122.937c-21.106-21.125-47.774-37.283-77.116-46.725-24.031-7.725-45.332-20.76-63.311-38.737-30.576-30.578-47.042-71.234-46.362-114.48 0.682-43.252 18.463-83.411 50.066-113.080l19.030-17.863 34.597 110.872c3.685 11.842 11.767 21.537 22.758 27.299 10.988 5.765 23.558 6.9 35.407 3.202 19.522-6.081 32.642-23.886 32.642-44.3 0-4.644-0.72-9.312-2.135-13.863l-34.361-110.216 26.106 4.244c29.332 4.768 56.54 17.568 78.688 37.024 38.93 34.256 58.744 85.396 53.001 136.797-6.222 55.796 13.661 111.264 54.555 152.172l44.984 44.984 305.173-305.17c13.794-13.794 31.907-20.688 50.025-20.688 18.116 0 36.238 6.897 50.028 20.688 27.585 27.585 27.585 72.469 0 100.054l-305.176 305.176zM636.018 576.527c47.956 47.977 71.258 113.193 63.925 178.922-4.56 40.804 11.18 81.407 42.089 108.606 10.46 9.185 22.353 16.498 35.183 21.707l-17.58-56.347c-2.391-7.646-3.602-15.58-3.602-23.584 0-34.819 22.341-65.186 55.6-75.571 41.65-12.975 86.133 10.348 99.138 51.993l18.056 57.884c13.737-20.102 21.302-43.756 21.7-68.705 0.548-34.331-12.514-66.605-36.768-90.867-14.285-14.263-31.175-24.597-50.209-30.714-34.262-11.026-65.47-29.955-90.254-54.739l-130.59-130.59-59.353 59.353 52.664 52.652zM376.118 838.945c48.48 48.483 119.212 63.908 180.862 42.016-58.525-33.459-114.182-85.6-144.273-127.459l-61.018 61.017c13.794 13.792 23.191 23.187 24.428 24.426zM328.565 791.393l119.182-119.322-108.689-108.687-119.252 119.253c23.473 23.471 71.943 71.941 108.759 108.757zM76.368 539.196l42.178 42.177 119.251-119.254-42.178-42.177-119.251 119.254zM257.384 541.428c-9.729-9.725-16.433-21.025-20.043-32.602l-71.969 71.972c11.566 3.611 22.86 10.312 32.595 20.046 10.773 10.773 17.815 23.456 21.075 36.304l74.655-74.656c-12.859-3.259-25.548-10.297-36.313-21.064zM497.661 319.479c-47.956-47.977-71.258-113.191-63.925-178.923 4.56-40.803-11.18-81.405-42.092-108.604-10.457-9.186-22.35-16.501-35.189-21.709l17.574 56.365c2.4 7.707 3.617 15.646 3.617 23.588 0 34.813-22.35 65.166-55.606 75.523-20.185 6.301-41.61 4.361-60.334-5.457-18.733-9.821-32.508-26.35-38.792-46.532l-18.057-57.865c-13.747 20.11-21.317 43.77-21.711 68.722-0.541 34.316 12.524 66.575 36.788 90.838 14.268 14.27 31.156 24.609 50.196 30.729 34.273 11.029 65.478 29.961 90.234 54.739l122.931 122.931 59.356-59.356-44.99-44.99zM947.881 59.296c-14.836-14.833-38.975-14.833-53.805 0l-506.425 506.428 53.802 53.802 506.425-506.425c14.833-14.836 14.833-38.972 0.003-53.805z" />
<glyph unicode="&#xe91b;" glyph-name="adult" horiz-adv-x="1152" d="M576 539.5c0 151.548-122.952 274.5-274.5 274.5s-274.5-122.952-274.5-274.5c0-141.252 106.75-257.725 244-272.784v-123.716h-99.125c-12.582 0-22.875-10.293-22.875-22.875v-15.25c0-12.582 10.293-22.875 22.875-22.875h99.125v-99.125c0-12.582 10.293-22.875 22.875-22.875h15.25c12.582 0 22.875 10.293 22.875 22.875v99.125h99.125c12.582 0 22.875 10.293 22.875 22.875v15.25c0 12.582-10.293 22.875-22.875 22.875h-99.125v123.716c137.25 15.059 244 131.532 244 272.784zM88 539.5c0 117.998 95.312 213.5 213.5 213.5 117.998 0 213.5-95.312 213.5-213.5 0-117.998-95.312-213.5-213.5-213.5-117.998 0-213.5 95.312-213.5 213.5zM1125 913.125v-167.75c0-12.582-10.293-22.875-22.875-22.875h-15.25c-12.582 0-22.875 10.293-22.875 22.875v86.543l-121.048-121.048c37.552-47.084 60.048-106.559 60.048-171.373 0-151.548-122.952-274.5-274.5-274.5-64.241 0-123.143 22.112-170.037 58.902 13.152 15.632 24.782 32.407 34.884 50.134 37.934-31.073 85.209-48.037 134.962-48.037 118.187 0 213.5 95.502 213.5 213.5 0 118.187-95.502 213.5-213.5 213.5-49.752 0-97.027-16.966-134.962-48.037-10.102 17.727-21.732 34.693-34.884 50.134 46.893 36.791 105.798 58.902 170.037 58.902 64.812 0 124.287-22.493 171.373-60.048l121.048 121.048h-86.543c-12.582 0-22.875 10.293-22.875 22.875v15.25c0 12.582 10.293 22.875 22.875 22.875h167.75c12.582 0 22.875-10.293 22.875-22.875z" />
<glyph unicode="&#xe91c;" glyph-name="dice" horiz-adv-x="1280" d="M945 310.75c-25.258 0-45.75-20.472-45.75-45.75 0-25.258 20.492-45.75 45.75-45.75s45.75 20.492 45.75 45.75c0 25.278-20.492 45.75-45.75 45.75zM457 554.75c-25.258 0-45.75-20.472-45.75-45.75 0-25.258 20.492-45.75 45.75-45.75s45.75 20.492 45.75 45.75c0 25.278-20.492 45.75-45.75 45.75zM640 554.75c-25.258 0-45.75-20.472-45.75-45.75 0-25.258 20.492-45.75 45.75-45.75s45.75 20.492 45.75 45.75c0 25.278-20.492 45.75-45.75 45.75zM274 554.75c-25.258 0-45.75-20.472-45.75-45.75 0-25.258 20.492-45.75 45.75-45.75s45.75 20.492 45.75 45.75c0 25.278-20.492 45.75-45.75 45.75zM457 371.75c-25.258 0-45.75-20.472-45.75-45.75 0-25.258 20.492-45.75 45.75-45.75s45.75 20.492 45.75 45.75c0 25.278-20.492 45.75-45.75 45.75zM457 737.75c-25.258 0-45.75-20.472-45.75-45.75 0-25.258 20.492-45.75 45.75-45.75s45.75 20.492 45.75 45.75c0 25.278-20.492 45.75-45.75 45.75zM1128 570h-260.433c-5.51 9.854-11.932 19.349-20.301 27.718l-301.551 301.531c-24.494 24.514-56.616 36.753-88.718 36.753s-64.221-12.237-88.718-36.753l-301.531-301.531c-48.991-48.991-48.991-128.442 0-177.433l301.531-301.531c24.494-24.494 56.616-36.753 88.718-36.753s64.221 12.257 88.718 36.753l94.282 94.282v-131.036c0-67.385 54.615-122 122-122h366c67.385 0 122 54.615 122 122v366c0 67.385-54.615 122-122 122zM501.359 163.11c-11.838-11.838-27.603-18.377-44.359-18.377s-32.501 6.519-44.359 18.377l-301.531 301.531c-11.838 11.858-18.377 27.603-18.377 44.359s6.519 32.501 18.377 44.359l301.531 301.531c11.838 11.838 27.603 18.377 44.359 18.377s32.501-6.519 44.359-18.377l301.531-301.531c11.858-11.838 18.377-27.603 18.377-44.359s-6.519-32.501-18.377-44.359l-301.531-301.531zM1189 82c0-33.627-27.373-61-61-61h-366c-33.627 0-61 27.373-61 61v192.036l146.248 146.248c24.494 24.494 36.753 56.616 36.753 88.718h244c33.627 0 61-27.373 61-61v-366z" />
<glyph unicode="&#xe91d;" glyph-name="car" d="M252.886 463.334c-49.756 0-85.866-32.2-85.866-76.57s36.11-76.57 85.866-76.57l19.435-0.192c75.152 0 86.365 38.525 86.365 61.486-0.020 47.304-59.608 91.846-105.8 91.846zM272.32 356c-6.728 0-13.455 0.192-19.435 0.192-23.92 0-39.866 12.228-39.866 30.57s15.946 30.57 39.866 30.57 59.8-27.524 59.8-45.866c0-13.742-20.202-15.468-40.365-15.468zM771.114 463.334c-46.192 0-105.78-44.544-105.78-91.866 0-22.962 11.212-61.486 86.365-61.486l19.435 0.192c49.756 0 85.866 32.2 85.866 76.57-0.020 44.39-36.13 76.59-85.886 76.59zM771.114 356.192c-5.98 0-12.708-0.192-19.435-0.192-20.182 0-40.365 1.725-40.365 15.468 0 18.342 35.88 45.866 59.8 45.866s39.866-12.228 39.866-30.57-15.946-30.57-39.866-30.57zM991.148 626.326c-14.068 22.77-38.448 36.36-65.224 36.36h-95.182l-15.468 47.456c-20.566 63.135-79.408 105.858-145.782 105.858h-314.985c-66.394 0-125.216-42.722-145.782-105.838l-15.468-47.456h-95.182c-26.776 0-51.156-13.59-65.224-36.36s-15.334-50.638-3.354-74.578l11.078-22.252c7.59-15.104 19.014-27.006 32.584-35.554-13.244-22.502-21.14-48.53-21.14-76.61v-245.352c0-50.734 41.266-92 92-92h30.666c50.734 0 92 41.266 92 92v30.666h490.648v-30.666c0-50.734 41.266-92 92-92h30.666c50.734 0 92 41.266 92 92v245.352c0 28.098-7.896 54.108-21.14 76.628 13.59 8.548 24.994 20.47 32.584 35.592l11.078 22.156c11.96 23.958 10.695 51.846-3.374 74.596zM267.050 691.148c12.382 37.988 47.534 63.518 87.476 63.518h314.966c39.944 0 75.095-25.53 87.476-63.5l39.234-120.462h-568.388l39.234 120.444zM95.45 556.944l-11.078 22.214c-3.47 6.88-0.652 12.726 0.652 14.912 1.668 2.722 5.635 7.284 13.052 7.284h75.21l-12.362-37.988c-16.816-5.222-31.457-12.591-44.573-21.959l0.471 0.319c-9.028 1.916-17.135 6.746-21.37 15.218zM205.352 172c0-16.924-13.78-30.666-30.666-30.666h-30.666c-16.886 0-30.666 13.742-30.666 30.666v30.666h92v-30.666zM910.648 172c0-16.924-13.78-30.666-30.666-30.666h-30.666c-16.886 0-30.666 13.742-30.666 30.666v30.666h92v-30.666zM910.648 325.352v-61.334h-797.295v153.334c0 50.734 41.266 92 92 92h613.295c50.734 0 92-41.266 92-92v-92zM939.628 579.138l-11.078-22.138c-4.236-8.51-12.344-13.36-21.37-15.276-13.302 9.392-28.156 16.79-44.102 21.64l-12.362 37.988h75.21c7.418 0 11.385-4.562 13.052-7.284 1.322-2.185 4.14-8.012 0.652-14.93z" />
<glyph unicode="&#xe91e;" glyph-name="book" horiz-adv-x="1152" d="M1005.508 872h-0.302c-45.58-0.228-273.99-16.715-415.597-91.027-7.665-4.012-19.553-4.012-27.218 0-141.624 74.314-370.034 90.801-415.597 91.027h-0.302c-63.771 0-115.634-50.105-115.634-111.697v-561.612c0-59.454 48.097-108.422 109.502-111.488 65.814-3.331 230.986-15.635 344.292-57.485 9.976-3.69 20.14-5.716 30.76-5.716h121.142c10.637 0 20.802 2.043 30.777 5.716 113.326 41.85 278.478 54.154 344.349 57.485 61.347 3.066 109.445 52.017 109.445 111.471v561.629c0.020 61.594-51.846 111.697-115.617 111.697zM545.713 112.963c0-16.297-13.515-28.64-28.885-28.64-3.351 0-6.796 0.587-10.202 1.855-118.21 43.933-282.017 57.411-363.258 61.537-29.13 1.457-51.94 23.85-51.94 50.974v561.612c0 28.184 24.722 51.108 55.063 51.108 36.493-0.188 231.798-13.968 363.657-72.477 21.314-9.463 35.282-29.812 35.322-52.698l0.245-189.891v-383.378zM1060.571 198.692c0-27.124-22.81-49.518-51.96-50.974-81.241-4.126-245.048-17.604-363.258-61.537-3.408-1.268-6.853-1.855-10.202-1.855-15.35 0-28.885 12.341-28.885 28.64v383.378l0.245 189.891c0.020 22.884 14.008 43.232 35.322 52.698 131.856 58.508 327.161 72.288 363.657 72.477 30.342 0 55.063-22.922 55.063-51.108v-561.612z" />
<glyph unicode="&#xe91f;" glyph-name="banking" horiz-adv-x="1152" d="M515.356 681.082l109.276-31.194c17.050-4.844 28.868-20.538 28.868-38.169 0-21.894-17.826-39.719-39.719-39.719h-71.494c-15.888 0-31.194 5.038-43.788 14.144-5.812 4.262-13.95 2.906-18.988-2.325l-22.088-22.088c-6.782-6.782-5.618-17.826 1.938-23.638 23.832-18.212 52.7-28.094 83.12-28.094h2.712v-46.5c0-8.526 6.976-15.5 15.5-15.5h31c8.526 0 15.5 6.976 15.5 15.5v46.5h2.712c44.176 0 85.832 26.35 100.17 68.2 19.568 57.35-14.144 115.864-68.006 131.364l-114.506 32.744c-17.050 4.844-28.868 20.538-28.868 38.169 0 21.894 17.826 39.719 39.719 39.719h71.494c15.888 0 31.194-5.038 43.788-14.144 5.812-4.262 13.95-2.906 18.988 2.325l22.088 22.088c6.782 6.782 5.618 17.826-1.938 23.638-23.832 18.018-52.7 27.9-83.12 27.9h-2.712v46.5c0 8.526-6.976 15.5-15.5 15.5h-31c-8.526 0-15.5-6.976-15.5-15.5v-46.5h-6.782c-59.288 0-106.756-50.956-101.138-111.406 3.876-42.82 36.812-77.694 78.276-89.514zM1099.71 297.65c-38.169 34.294-95.714 34.1-135.432 2.325l-119.35-95.52c-3.682-2.906-8.138-4.456-12.982-4.456h-80.6c8.912 18.6 12.594 40.106 9.3 62.582-7.75 54.056-57.35 92.42-111.988 92.42h-279.39c-40.3 0-79.438-12.982-111.6-37.2l-74.4-55.8h-149.77c-8.526 0-15.5-6.976-15.5-15.5v-31c0-8.526 6.976-15.5 15.5-15.5h170.502l90.87 68.2c21.506 16.082 47.662 24.8 74.4 24.8h284.233c25.768 0 46.5-20.732 46.5-46.5s-20.732-46.5-46.5-46.5h-170.502c-17.050 0-31-13.95-31-31s13.95-31 31-31h349.14c18.794 0 37.006 6.394 51.732 18.018l119.35 95.326c14.918 11.818 38.75 14.726 55.026 0 19.568-17.632 18.018-47.47-1.744-63.162l-195.302-156.358c-14.726-11.818-32.938-18.018-51.732-18.018h-775.974c-8.526 0-15.5-6.976-15.5-15.5v-31c0-8.526 6.976-15.5 15.5-15.5h775.974c32.938 0 64.712 11.238 90.288 31.776l195.494 156.358c23.638 18.988 37.782 47.276 38.75 77.5s-11.626 59.676-34.294 80.213z" />
<glyph unicode="&#xe920;" glyph-name="travel" horiz-adv-x="1282" d="M178.47 225.674c14.696-15.582 35.486-24.532 57.066-24.532l245.488 0.328c21.658 0.038 43.316 5.11 62.678 14.676l546.942 270.598c56.372 27.888 102.040 66.69 132.068 112.204 34.676 52.592 43.238 96.968 25.418 131.914-22.39 44.088-81.135 59.322-140.458 59.322-50.142 0-101.328-12.748-152.145-37.878l-179.126-88.618-403.206 147.516c-7.295 4.447-16.119 7.078-25.556 7.078-0.032 0-0.067 0-0.099 0h0.005c-7.638 0-15.294-1.794-22.12-5.168l-123.564-61.136c-16.335-8.080-24.898-22.854-26.808-37.26-2.392-17.955 6.692-35.524 22.12-45.012l263.77-162.116-162.192-80.248-129.040 63.412c-19.788 9.72-37.51 3.22-44.126-0.058l-75.446-37.318c-13.674-6.77-23.24-19.132-26.248-33.924s0.984-29.835 10.954-41.29l143.62-152.492zM147.71 432.822l151.122-74.27 289.672 143.312-336.574 206.048 95.214 47.096 432.926-158.374 202.848 100.362c42.216 20.886 84.202 31.474 124.778 31.474 31.494 0 75.966-6.942 85.455-25.612 6.596-12.94-1.62-39.072-21.948-69.93-24.010-36.392-61.328-67.828-107.904-90.874l-546.942-270.598c-10.916-5.4-23.162-8.254-35.39-8.274l-245.43-0.328c-4.57 0-9.122 1.928-12.15 5.13l-130.005 137.95 54.328 26.884zM1243.93 16h-1203.428c-8.524 0-15.428-6.904-15.428-15.428v-30.858c0-8.524 6.904-15.428 15.428-15.428h1203.428c8.524 0 15.428 6.904 15.428 15.428v30.858c0 8.524-6.904 15.428-15.428 15.428z" />
<glyph unicode="&#xe921;" glyph-name="desktop" horiz-adv-x="1152" d="M1041 944h-930c-51.344 0-93-41.656-93-93v-558c0-51.344 41.656-93 93-93h372l-46.5-186h-139.5c-17.050 0-31-13.95-31-31s13.95-31 31-31h558c17.050 0 31 13.95 31 31s-13.95 31-31 31h-139.5l-46.5 186h372c51.344 0 93 41.656 93 93v558c0 51.344-41.656 93-93 93zM500.438 14l31 124h89.125l31-124h-151.125zM1072 293c0-17.050-13.95-31-31-31h-930c-17.050 0-31 13.95-31 31v558c0 17.050 13.95 31 31 31h930c17.050 0 31-13.95 31-31v-558z" />
<glyph unicode="&#xe922;" glyph-name="pet" d="M512 509.714c-153.148 0-370.286-236.752-370.286-386.196 0-67.308 51.706-107.518 138.356-107.518 94.192 0 156.388 48.368 231.93 48.368 76.198 0 138.568-48.368 231.93-48.368 86.65 0 138.356 40.21 138.356 107.518 0 149.446-217.138 386.196-370.286 386.196zM743.93 77.714c-39.15 0-72.92 11.128-108.676 22.912-37.954 12.516-77.182 25.438-123.256 25.438-45.61 0-84.568-12.864-122.252-25.302-35.948-11.86-69.91-23.066-109.678-23.066-76.642 0.020-76.642 34.502-76.642 45.822 0 121.308 193.224 324.482 308.572 324.482s308.572-203.176 308.572-324.482c0-11.32 0-45.804-76.642-45.804zM934.030 630.694c-6.885 1.658-13.886 2.45-20.848 2.45-49.854 0-99.552-40.5-117.142-99.11-20.058-66.826 9.2-131.876 65.36-145.298 6.904-1.658 13.886-2.45 20.848-2.45 49.854 0 99.552 40.5 117.142 99.11 20.058 66.826-9.2 131.876-65.36 145.298zM940.278 503.138c-10.356-34.502-37.646-55.138-58.030-55.138-2.238 0-4.416 0.25-6.5 0.752-7.136 1.698-12.96 6.402-17.318 13.982-7.965 13.848-9.18 33.846-3.278 53.538 10.356 34.522 37.646 55.158 58.050 55.158 2.238 0 4.416-0.25 6.5-0.752 7.136-1.698 12.96-6.422 17.318-13.982 7.946-13.848 9.18-33.846 3.26-53.556zM632.652 574.11c6.846-1.794 13.79-2.662 20.752-2.662 53.692 0 108.424 51.724 128.636 125.84 22.834 83.738-7.020 164.334-66.69 180.052-6.193 1.702-13.307 2.68-20.647 2.68-0.036 0-0.075 0-0.111 0h0.006c-53.692 0-108.424-51.724-128.636-125.858-22.834-83.738 7.020-164.353 66.69-180.052zM625.496 737.904c14.31 52.458 49.332 80.382 69.1 80.382 1.755 0 3.414-0.212 5.034-0.636 7.965-2.102 13.732-9.642 17.164-15.602 9.798-16.972 16.432-49.14 5.69-88.54-14.31-52.438-49.314-80.364-69.1-80.364-1.755 0-3.414 0.212-5.052 0.636-7.946 2.082-13.732 9.624-17.164 15.582-9.778 16.99-16.412 49.14-5.67 88.54zM370.598 571.428c6.962 0 13.905 0.868 20.752 2.662 59.67 15.698 89.524 96.312 66.69 180.052-20.212 74.134-74.944 125.858-128.636 125.858-6.962 0-13.905-0.868-20.752-2.68-59.67-15.698-89.524-96.312-66.69-180.052 20.212-74.116 74.964-125.84 128.636-125.84zM307.186 802.048c3.432 5.96 9.218 13.5 17.164 15.602 1.64 0.424 3.278 0.636 5.034 0.636 19.788 0 54.79-27.926 69.1-80.382 10.742-39.4 4.108-71.57-5.69-88.54-3.432-5.96-9.2-13.5-17.164-15.582-1.64-0.424-3.278-0.636-5.034-0.636-19.788 0-54.79 27.926-69.1 80.382-10.742 39.382-4.108 71.55 5.69 88.522zM162.62 388.734c56.16 13.422 85.416 78.474 65.34 145.298-17.588 58.61-67.288 99.11-117.142 99.11-6.982 0-13.962-0.79-20.848-2.45-56.16-13.422-85.416-78.474-65.36-145.298 17.588-58.61 67.308-99.11 117.142-99.11 6.982 0 13.962 0.79 20.868 2.45zM83.722 503.158c-5.902 19.69-4.686 39.71 3.278 53.538 4.358 7.58 10.182 12.285 17.318 13.982 2.082 0.502 4.262 0.752 6.5 0.752 20.385 0 47.674-20.636 58.030-55.138 5.902-19.69 4.686-39.71-3.278-53.556-4.358-7.58-10.182-12.285-17.318-13.982-2.122-0.502-4.242-0.752-6.5-0.752-20.385 0-47.674 20.636-58.030 55.158z" />
<glyph unicode="&#xe923;" glyph-name="music" d="M1008 881.98c0 35.398-27.745 62.020-59.19 62.020-5.89 0-11.916-0.93-17.922-2.926l-563.386-186c-24.626-8.138-41.502-31.95-41.502-59.074v-474.222c-32.956 24.742-76.144 40.222-124 40.222-102.726 0-186-69.402-186-155s83.274-155 186-155 186 69.402 186 155v341l558 186v-288.222c-32.956 24.742-76.144 40.222-124 40.222-102.726 0-186-69.402-186-155s83.274-155 186-155 186 69.402 186 155c0 0.058-0.020 0.096-0.020 0.155l0.020 650.826zM202 14c-67.212 0-124 42.586-124 93s56.788 93 124 93 124-42.586 124-93-56.788-93-124-93zM946 699.352l-558-186v182.648h-1.066v0.214l559.066 184.566v-181.428zM822 138c-67.212 0-124 42.586-124 93s56.788 93 124 93 124-42.586 124-93-56.788-93-124-93z" />
<glyph unicode="&#xe924;" glyph-name="photo" d="M643.722 818.286c6.364 0 12.15-4.050 14.464-10.028l42.622-113.4h212.336c16.972 0 30.858-13.886 30.858-30.858v-555.428c0-16.972-13.886-30.858-30.858-30.858h-802.286c-16.972 0-30.858 13.886-30.858 30.858v555.428c0 16.972 13.886 30.858 30.858 30.858h212.528l38.764 103.372c4.436 11.958 16.008 20.058 28.928 20.058h252.642zM643.722 880h-252.642c-38.572 0-73.092-23.914-86.592-59.978l-23.914-63.45h-169.714c-51.108 0-92.572-41.464-92.572-92.572v-555.428c0-51.108 41.464-92.572 92.572-92.572h802.286c51.108 0 92.572 41.464 92.572 92.572v555.428c0 51.108-41.464 92.572-92.572 92.572h-169.714l-27.578 73.286c-11.186 30.278-39.922 50.142-72.128 50.142zM512 154.858c-127.672 0-231.428 103.758-231.428 231.428s103.758 231.428 231.428 231.428 231.428-103.758 231.428-231.428-103.758-231.428-231.428-231.428zM512 556c-93.536 0-169.714-76.178-169.714-169.714s76.178-169.714 169.714-169.714 169.714 76.178 169.714 169.714-76.178 169.714-169.714 169.714z" />
<glyph unicode="&#xe925;" glyph-name="clock" d="M512 928c-265.162 0-480-214.838-480-480s214.838-480 480-480 480 214.838 480 480-214.838 480-480 480zM930.064 448c0-229.742-186-418.064-418.064-418.064-229.742 0-418.064 186-418.064 418.064 0 229.742 186 418.064 418.064 418.064 229.742 0 418.064-186 418.064-418.064zM641.87 277.096l-157.162 114.194c-6 4.452-9.484 11.42-9.484 18.774v308.904c0 12.774 10.452 23.226 23.226 23.226h27.096c12.774 0 23.226-10.452 23.226-23.226v-283.162l136.452-99.29c10.452-7.548 12.58-22.064 5.032-32.516l-15.87-21.87c-7.548-10.258-22.064-12.58-32.516-5.032z" />
<glyph unicode="&#xe926;" glyph-name="kite" horiz-adv-x="1280" d="M1197.998 943.998h-508.592c-28.868 0-53.862-19.956-60.45-48.050l-161.78-700.986-170.886-170.886c-20.344-20.15-59.288-3.875-59.288 24.606v204.406l23.25-17.824c14.338-11.044 31.388-16.856 49.018-16.856 45.532 0 82.731 38.556 82.731 85.83v101.138c0 47.274-37.2 85.83-82.731 85.83-17.824 0-34.682-5.812-49.018-16.856l-23.25-17.824v53.474c0 85.638-69.362 155-155 155h-46.5c-8.524 0-15.5-6.974-15.5-15.5v-31c0-8.524 6.974-15.5 15.5-15.5h46.5c51.344 0 93-41.656 93-93v-53.088l-23.25 17.824c-14.338 11.044-31.388 16.856-49.018 16.856-45.532-0.194-82.731-38.75-82.731-86.024v-101.138c0-47.274 37.2-85.83 82.731-85.83 17.824 0 34.682 5.812 49.018 16.856l23.25 17.824v-199.756c0-49.794 35.456-94.744 84.862-100.75 30.032-3.488 59.094 6.588 80.212 27.706l170.886 170.886 700.986 161.78c28.094 6.588 48.050 31.582 48.050 60.45v508.398c0 34.294-27.706 62-62 62zM114.164 284.67c-13.756-10.462-32.162 0.775-32.162 19.762v101.138c0 18.988 18.406 30.224 32.162 19.762l91.838-70.332 91.838 70.332c13.756 10.462 32.162-0.775 32.162-19.762v-101.138c0-18.988-18.406-30.224-32.162-19.762l-91.838 70.332zM1154.21 881.998l-211.962-211.962-211.962 211.962zM680.494 844.024l217.968-217.774-348.556-348.556zM593.694 233.906l348.556 348.556 217.774-217.774zM1197.998 414.288l-211.962 211.962 211.962 211.962z" />
<glyph unicode="&#xe927;" glyph-name="folder" horiz-adv-x="1152" d="M1035.904 509.334h-91.904v92c0 50.81-41.19 92-92 92h-306.666l-122.666 122.666h-306.666c-50.81 0-92-41.19-92-92v-552c0-50.81 41.19-92 92-92h738.026c53.797 0 103.758 28.238 131.482 74.444l129.284 215.556c36.668 61.111-7.33 139.334-78.888 139.334zM116 754.666h281.262l122.666-122.666h332.072c16.938 0 30.666-13.73 30.666-30.666v-92h-530.578c-53.797 0-103.758-28.238-131.482-74.444l-135.274-225.458v514.568c0 16.938 13.73 30.666 30.666 30.666zM1062.248 401.556l-129.334-215.556c-16.368-26.942-45.558-44.666-78.886-44.666-0.001 0-0.002 0-0.002 0h-744.116l157.2 262c16.37 26.942 45.561 44.666 78.889 44.666 0 0 0.001 0 0.001 0h689.952c23.838 0 38.562-26.006 26.296-46.444z" />
<glyph unicode="&#xe928;" glyph-name="click" horiz-adv-x="1349" d="M783.229 634.825l-469.134-316.857c-13.844-7.691-16.919-26.148-7.691-38.454 6.153-9.229 10.766-12.306 19.995-15.382l172.272-35.377-106.132-186.115c-6.153-15.382-3.076-36.916 12.306-43.067l78.446-44.607c12.306-6.153 32.301-3.076 38.454 12.306l3.076 3.076 106.132 183.040 119.976-129.204c9.229-12.306 29.226-12.306 41.53-3.076 6.153 6.153 9.229 15.382 9.229 24.61l29.226 561.424c3.076 15.382-7.691 30.763-26.148 32.301-9.229 0-15.382-1.538-21.535-4.615zM407.923 310.275l359.927 239.951-23.072-432.22-103.056 107.669c0 3.076-3.076 6.153-6.153 6.153-10.766 9.229-29.226 3.076-41.53-12.306l-107.669-195.344-27.686 15.382 110.747 195.344c0 3.076 3.076 6.153 3.076 9.229 3.076 13.844-4.615 32.301-19.995 35.377zM86.45 288.742h299.938v66.14h-299.938v526.045h1178.219v-526.045h-469.134v-66.14h466.059c38.454 0 66.14 29.226 66.14 66.14v526.045c0 35.377-30.763 63.064-66.14 63.064h-1175.144c-35.377 0-66.14-30.763-66.14-63.064v-526.045c0-36.916 30.763-66.14 66.14-66.14z" />
<glyph unicode="&#xe929;" glyph-name="envelope" horiz-adv-x="1315" d="M1244.292 944h-1175.395c-25.009 0-48.349-21.673-48.349-48.349v-895.302c0-30.010 23.342-48.349 48.349-48.349h1175.395c30.010 0 50.016 18.339 50.016 48.349v895.302c0 26.676-20.006 48.349-50.016 48.349zM118.913 800.619l520.175-516.841c13.338-13.338 30.010-13.338 41.681 0l518.508 516.841v-758.589h-1080.363zM160.595 847.302h997.001l-498.502-501.836z" />
</font>
</defs>
</svg>
