<svg xmlns="http://www.w3.org/2000/svg" viewBox="0 0 450 170" id="Layer_1"><style id="style3035"/><path d="M345.7 101.5c0 4-3 6.3-4.6 6.3-2.4 0-3.6-1.8-3.6-4.1 0-1.7.8-3.9 2.4-5.3 2.9.1 5.7.5 5.8 3.1zm93.2-8.8c0 3.4-3.8 13.4-9.2 13.4-5.3 0-6.9-4.8-6.9-10.2 0-5.4 1.5-11.3 2.6-13.7l-.1-.1c-2.1.7-9.4 15.3-9.4 22.6 0 .6-.2.6-1 .6-3.4 0-5.3-1.4-5.3-5.6 0-5 2.2-16.1 3.4-21.3l-.3-.1c-1.8 2.5-8.9 13.1-10.9 25.4-.5.3-1 .3-1.5.3-1.8 0-3.5-1.5-3.5-4.8 0-1.5 1.3-6.8 2.1-12.7h-.1c-2.2 7.8-5.9 11.1-9.2 11.1h-.6c-2.1 4.8-5.6 8.7-10.4 8.7-5.3 0-7.8-4-8.3-9.1-2.6 5.8-7 9.1-10.7 9.1-7.5 0-10.2-6.8-10.2-12.9 0-8.1 4.9-17.6 10.2-17.6 1.8 0 3.2.8 4 1.3.3-1.5.6-2.9.8-3.8.1-.1.3-.1.6-.1 1.4 0 4.1.8 4.1 3.1-.8 1.3-2.5 6.7-2.5 10-.3.3-.8.5-1.2.5-1.6 0-2.2-2.4-2.2-5.2 0-1 .1-2 .1-3-.1 0-.2-.1-.3-.1-3.2 0-7.3 8.4-7.3 15.1 0 4.5 1.5 8.2 5.5 8.2 3.7 0 7-3.7 9.1-9.8 1-7.8 5.6-16.6 12.3-16.6 3.4 0 6 2 6.7 5.4l1.4.3s.5 2 .5 5.1c0 2-.2 4.5-.9 7.2.1 0 .3.1.4.1 3.9 0 7.2-9 8.9-18.6.4-.1.9-.1 1.3-.1 2.9 0 4.2 2.1 4.2 5.3 0 2.2-.5 5.2-1 8.3.1 0 .1.1.1.1 3.1-7.5 7.5-14.3 10.5-14.3 2.2 0 3.4 2 3.4 5.2 0 .5-.1 1-.1 1.5-1 6-2 11.1-2.5 15.3h.1c2.1-8.3 8.2-18.3 11.2-18.3 1.4 0 4 2.7 4 4.2 0 1.3-1.9 8-1.9 12.8 0 2.9.6 5.2 2.6 5.2 4.1 0 6.5-8.6 6.5-8.6.8.3.9.8.9 1.2zm-51.5-11c-.4-2.6-1.6-2.8-2.5-2.8-3.9 0-8.3 9.7-8.3 16.5 0 3.7 1.2 6.5 3.9 6.5s4.6-2.3 6.1-5.2c-1.7-1.2-2.4-3.9-2.4-6.8-.1-3.3 1-6.8 3.2-8.2zm-53.4 38c0 3.6-3.6 5.2-4.4 5.2h-.1c-.6-2.9-3.8-5-8.1-6.4-3.4 21-8.5 39-20.9 39-8 0-26.6-11.1-26.6-26.4 0-14.7 19-20.2 35.6-20.2 1.2 0 2.6 0 3.9.1 1.8-8.5 3.4-18.6 4.8-31l-.5-.1C313.2 92.5 307.4 104 300 104c-6.1 0-8.5-5.4-8.7-12.3-3.6 7.3-12.8 17.4-20.3 17.4-9 0-12.5-7.7-12.2-11.4-4.4 9-13.3 11.6-18.3 11.4-8.1-.4-10.9-7-11.1-16.7-2.8 6.5-7.4 12.9-13.1 12.9-7 0-10.5-5.9-11.2-14.6l-.5-.1c-2.5 8.8-6.8 17.1-13 17.1-7.9 0-11.4-7.4-11.7-16.3-17 22.2-32.2 17.8-39.9 9.6-2.3-2.8-3.3-5.1-3.8-6.9-4.6 8.8-12.5 13.3-19.7 13.3-3 0-5.8-.8-8.2-2.2-6.9 5.1-15.1 8.6-24.1 8.6-12.5 0-26.2-6.8-37.9-22.4-.8 7-1.1 14.1-1.2 21.1-.4.1-.8.1-1.1.1-6.1 0-10.4-6.1-10.4-12.5 0-5.2 1.4-12.9 3.5-20.9-2.9-3.2-5-6.8-5-7.8 0-1.5 1.2-2.8 3.2-2.8.2 0 2 .5 4.2 1C43 57.7 47 46.3 49 40.6c4.6.4 6.1 3.4 6.1 7.1 0 6.4-4 15-4.9 18.6-.5 1.8-.8 3.5-1.1 5.2 29.8-2.4 56.4-23.4 56.4-36.8 0-6.8-6.5-11.6-22.1-11.6-27.1 0-63.6 18.6-63.6 32 0 1.5.5 3.5 2.8 3.5 2.5 0 6.2-1.9 8.1-4.4.4.6.5 1.2.5 2 0 3.4-4 8-9.5 8-6 0-10.4-10.9-10.4-16.1 0-18.1 37.5-35.9 65.2-35.9 18.5 0 33.8 7.1 33.8 25 0 26.1-37 41.3-61 41.3h-1.4c-.1.5-.2 1-.2 1.5 11.6 12.2 30 21 44.9 21 3.6 0 7-.8 10.1-2-1.9-3.4-3-7.9-3-13.4 0-14.5 8.8-31.4 18.2-31.4 17.5 0 13.5 26.1-2.2 43.8 1.5 1 3.1 1.5 5 1.5 6.4 0 14-7.4 16.9-21.4 2.8-17.9 8.9-45.1 12.4-60.2 7.1.1 9.6 4.6 9.6 10.1 0 8.6-5.8 20.2-6.1 22.2l-3 12.4.2.1c3-6.2 6.8-11.4 11.9-11.4 2.9 0 9.8 5.5 11.1 11.1.4 1.9.6 4.1.6 6.5 0 9.6-3.6 21.5-9.8 27.7h1.1c5.8-1.7 11.1-6 14.8-13.4 1.8-13 8.9-26.5 18.4-26.5 4.8 0 8.1 1.9 9.9 4.2.2-1.1.5-2.2.8-3.5 6.9.9 8.8 3.6 8.8 8 0 5.1-3.6 9.5-3.6 20.9 0 4.5 1.1 8.4 5 8.4 5.4 0 9-8.5 10.6-12.9.9-7.9 2.8-16.6 5.1-24.5-1.4.1-2.8.1-3.9.1-2.6 0-4.5-.9-4.5-3.8 0-1 .2-2.1.8-3.6 0 0 4.5-1.8 10.6-2.8 2.6-8.1 5.1-14.2 6.1-16 5.2 1.1 6.4 3.8 6.4 7.1 0 2.4-.8 5.4-2 8.4 9.1.8 11.6 4.1 11.6 8.2 0 .9-.1 1.6-.2 2.5-3.4-.1-9.2-.4-15.1-.5-2 7.5-4.5 20.6-4.5 30.3 0 7 1.4 11.1 5.1 11.1 3.3 0 11.7-6.6 13.2-13.3 2.9-12.8 15.5-70.4 26.5-70.6 5.8.1 7.9 6.4 7.9 15.1 0 18.9-5 41.5-22.5 58.2-.2 1.9-1.5 10.5 3.7 10.6 12.5-2.7 17.8-17.1 17.8-17.1 1.5-10.9 5-23.1 6.8-27.4h.1c1.2 0 8.4 2.5 8.4 7.2 0 .5-.1 1.1-.1 1.5-1.9 5.6-5.2 18.5-5.2 25.8 0 3.4.6 5.6 2.6 5.6 4.6 0 14.8-24.4 16-39.6 7.2 0 9.6 4.2 9.6 8.9 0 3-1.1 6.3-2.1 8.4-2.4 11.1-3.9 25.9-5.8 39.9 6.5 1.9 11.3 4.7 11.3 8.2zm-62.5-42.9c10.1-10.4 15.6-39.7 15.6-50.2 0-2.6-.6-4.1-1.2-4.1-3.5-.1-11.7 28.3-14.4 54.3zM111.9 92.9c12.4-12.1 15.9-33.4 10.1-33.4-3.9 0-11.1 15.3-11.1 26.6 0 2.7.3 4.9 1 6.8zm49.2-36.1C154.2 60.4 146 83.5 145 93c1.5 2 3.6 3.5 5.6 3.5 11.2 0 16-39.7 10.5-39.7zm46.8 8c-.6-1-2.2-1.9-4.9-1.9-6.4 0-12.8 17.9-12.8 27.8 0 4 1 6.6 3.4 6.6 6.1 0 11.9-16.1 14.3-32.5zm104 52.1c-1.1-.1-2.4-.1-3.5-.1-21.4 0-29.1 9.8-29.1 18.2 0 6.8 4.9 12.8 11.6 12.8 7.5 0 15.1-7 21-30.9z" id="path3037" fill="#fff"/></svg>