<svg id="Layer_1" data-name="Layer 1" xmlns="http://www.w3.org/2000/svg" viewBox="0 0 289.81 30.75"><defs><style>.cls-1,.cls-3,.cls-4{fill:#ececec;}.cls-2{fill:#d8d8d8;}.cls-3,.cls-4{stroke:#d8d8d8;stroke-miterlimit:10;}.cls-3{stroke-width:1px;}</style></defs><title>divider--mobile</title><circle class="cls-1" cx="22.63" cy="15.41" r="4.05"/><path class="cls-2" d="M22.63,11.81a3.6,3.6,0,1,1-3.6,3.6,3.6,3.6,0,0,1,3.6-3.6m0-.9a4.5,4.5,0,1,0,4.5,4.5,4.5,4.5,0,0,0-4.5-4.5h0Z"/><circle class="cls-1" cx="38.9" cy="15.41" r="4.05"/><path class="cls-2" d="M38.9,11.81a3.6,3.6,0,1,1-3.6,3.6,3.6,3.6,0,0,1,3.6-3.6m0-.9a4.5,4.5,0,1,0,4.5,4.5,4.5,4.5,0,0,0-4.5-4.5h0Z"/><circle class="cls-1" cx="55.17" cy="15.41" r="4.05"/><path class="cls-2" d="M55.17,11.81a3.6,3.6,0,1,1-3.6,3.6,3.6,3.6,0,0,1,3.6-3.6m0-.9a4.5,4.5,0,1,0,4.5,4.5,4.5,4.5,0,0,0-4.5-4.5h0Z"/><circle class="cls-1" cx="71.43" cy="15.41" r="4.05"/><path class="cls-2" d="M71.43,11.81a3.6,3.6,0,1,1-3.6,3.6,3.6,3.6,0,0,1,3.6-3.6m0-.9a4.5,4.5,0,1,0,4.5,4.5,4.5,4.5,0,0,0-4.5-4.5h0Z"/><circle class="cls-1" cx="87.7" cy="15.41" r="4.05"/><path class="cls-2" d="M87.7,11.81a3.6,3.6,0,1,1-3.6,3.6,3.6,3.6,0,0,1,3.6-3.6m0-.9a4.5,4.5,0,1,0,4.5,4.5,4.5,4.5,0,0,0-4.5-4.5h0Z"/><circle class="cls-1" cx="103.96" cy="15.41" r="4.05"/><path class="cls-2" d="M104,11.81a3.6,3.6,0,1,1-3.6,3.6,3.6,3.6,0,0,1,3.6-3.6m0-.9a4.5,4.5,0,1,0,4.5,4.5,4.5,4.5,0,0,0-4.5-4.5h0Z"/><circle class="cls-1" cx="120.23" cy="15.41" r="4.05"/><path class="cls-2" d="M120.23,11.81a3.6,3.6,0,1,1-3.6,3.6,3.6,3.6,0,0,1,3.6-3.6m0-.9a4.5,4.5,0,1,0,4.5,4.5,4.5,4.5,0,0,0-4.5-4.5h0Z"/><circle class="cls-1" cx="136.49" cy="15.41" r="4.05"/><path class="cls-2" d="M136.49,11.81a3.6,3.6,0,1,1-3.6,3.6,3.6,3.6,0,0,1,3.6-3.6m0-.9a4.5,4.5,0,1,0,4.5,4.5,4.5,4.5,0,0,0-4.5-4.5h0Z"/><circle class="cls-1" cx="152.76" cy="15.41" r="4.05"/><path class="cls-2" d="M152.76,11.81a3.6,3.6,0,1,1-3.6,3.6,3.6,3.6,0,0,1,3.6-3.6m0-.9a4.5,4.5,0,1,0,4.5,4.5,4.5,4.5,0,0,0-4.5-4.5h0Z"/><circle class="cls-1" cx="169.02" cy="15.41" r="4.05"/><path class="cls-2" d="M169,11.81a3.6,3.6,0,1,1-3.6,3.6,3.6,3.6,0,0,1,3.6-3.6m0-.9a4.5,4.5,0,1,0,4.5,4.5,4.5,4.5,0,0,0-4.5-4.5h0Z"/><circle class="cls-1" cx="185.29" cy="15.41" r="4.05"/><path class="cls-2" d="M185.29,11.81a3.6,3.6,0,1,1-3.6,3.6,3.6,3.6,0,0,1,3.6-3.6m0-.9a4.5,4.5,0,1,0,4.5,4.5,4.5,4.5,0,0,0-4.5-4.5h0Z"/><circle class="cls-1" cx="201.55" cy="15.41" r="4.05"/><path class="cls-2" d="M201.55,11.81a3.6,3.6,0,1,1-3.6,3.6,3.6,3.6,0,0,1,3.6-3.6m0-.9a4.5,4.5,0,1,0,4.5,4.5,4.5,4.5,0,0,0-4.5-4.5h0Z"/><circle class="cls-1" cx="217.82" cy="15.41" r="4.05"/><path class="cls-2" d="M217.82,11.81a3.6,3.6,0,1,1-3.6,3.6,3.6,3.6,0,0,1,3.6-3.6m0-.9a4.5,4.5,0,1,0,4.5,4.5,4.5,4.5,0,0,0-4.5-4.5h0Z"/><circle class="cls-1" cx="234.08" cy="15.41" r="4.05"/><path class="cls-2" d="M234.08,11.81a3.6,3.6,0,1,1-3.6,3.6,3.6,3.6,0,0,1,3.6-3.6m0-.9a4.5,4.5,0,1,0,4.5,4.5,4.5,4.5,0,0,0-4.5-4.5h0Z"/><circle class="cls-1" cx="250.35" cy="15.41" r="4.05"/><path class="cls-2" d="M250.35,11.81a3.6,3.6,0,1,1-3.6,3.6,3.6,3.6,0,0,1,3.6-3.6m0-.9a4.5,4.5,0,1,0,4.5,4.5,4.5,4.5,0,0,0-4.5-4.5h0Z"/><circle class="cls-1" cx="266.61" cy="15.41" r="4.05"/><path class="cls-2" d="M266.61,11.81a3.6,3.6,0,1,1-3.6,3.6,3.6,3.6,0,0,1,3.6-3.6m0-.9a4.5,4.5,0,1,0,4.5,4.5,4.5,4.5,0,0,0-4.5-4.5h0Z"/><path class="cls-3" d="M289.88,30.16a14.79,14.79,0,0,1-14-14.85,14.79,14.79,0,0,1,14-14.85"/><path class="cls-4" d="M-0.12.53a15.28,15.28,0,0,1,13,14.85,15.28,15.28,0,0,1-13,14.85"/></svg>