<svg width="107" height="100" viewBox="0 0 107 100" version="1.1" xmlns="http://www.w3.org/2000/svg" xmlns:xlink="http://www.w3.org/1999/xlink">
<title>responsive 2</title>
<desc>Created using Figma</desc>
<g id="Canvas" transform="translate(-527 -3149)">
<g id="responsive 2">
<g id="Group">
<g id="Group">
<g id="Group">
<g id="Vector">
<use xlink:href="#path0_fill" transform="translate(527 3149)" fill="#EF2141"/>
</g>
</g>
</g>
<g id="Group">
<g id="Group">
<g id="Vector">
<use xlink:href="#path1_fill" transform="matrix(0.705856 -0.708342 0.705856 0.708342 536.418 3222.74)" fill="#EF2141"/>
</g>
</g>
</g>
<g id="Group">
<g id="Group">
<g id="Vector">
<use xlink:href="#path2_fill" transform="matrix(0.705856 -0.708342 0.705856 0.708342 543.535 3228.09)" fill="#EF2141"/>
</g>
</g>
</g>
<g id="Group">
<g id="Group">
<g id="Vector">
<use xlink:href="#path3_fill" transform="matrix(0.705856 -0.708342 0.705856 0.708342 547.094 3212.02)" fill="#EF2141"/>
</g>
</g>
</g>
<g id="Group">
<g id="Group">
<g id="Vector">
<use xlink:href="#path4_fill" transform="matrix(0.705856 -0.708342 0.705856 0.708342 611.151 3222.74)" fill="#EF2141"/>
</g>
</g>
</g>
<g id="Group">
<g id="Group">
<g id="Vector">
<use xlink:href="#path5_fill" transform="matrix(0.705856 -0.708342 0.705856 0.708342 614.71 3229.89)" fill="#EF2141"/>
</g>
</g>
</g>
<g id="Group">
<g id="Group">
<g id="Vector">
<use xlink:href="#path6_fill" transform="matrix(0.705856 -0.708342 0.705856 0.708342 573.785 3179.88)" fill="#EF2141"/>
</g>
</g>
</g>
<g id="Group">
<g id="Group">
<g id="Vector">
<use xlink:href="#path7_fill" transform="matrix(0.705856 -0.708342 0.705856 0.708342 589.801 3176.31)" fill="#EF2141"/>
</g>
</g>
</g>
<g id="Group">
<g id="Group">
<g id="Vector">
<use xlink:href="#path8_fill" transform="matrix(0.705856 -0.708342 0.705856 0.708342 579.123 3187.03)" fill="#EF2141"/>
</g>
</g>
</g>
<g id="Group">
<g id="Group">
<g id="Vector">
<use xlink:href="#path9_fill" transform="matrix(0.705856 -0.708342 0.705856 0.708342 588.01 3165.62)" fill="#EF2141"/>
</g>
</g>
</g>
<g id="Group">
<g id="Group">
<g id="Vector">
<use xlink:href="#path10_fill" transform="translate(539.456 3156.14)" fill="#EF2141"/>
</g>
</g>
</g>
<g id="Group">
<g id="Group">
<g id="Vector">
<use xlink:href="#path10_fill" transform="translate(546.574 3156.14)" fill="#EF2141"/>
</g>
</g>
</g>
<g id="Group">
<g id="Group">
<g id="Vector">
<use xlink:href="#path10_fill" transform="translate(553.692 3156.14)" fill="#EF2141"/>
</g>
</g>
</g>
</g>
</g>
</g>
<defs>
<path id="path0_fill" d="M 101.429 48.2143L 101.429 8.92857C 101.429 4.00536 97.4373 0 92.5313 0L 14.2356 0C 9.32965 0 5.33835 4.00536 5.33835 8.92857L 5.33835 35.7143C 2.39514 35.7143 0 38.1179 0 41.0714L 0 94.6429C 0 97.5964 2.39514 100 5.33835 100L 44.4862 100C 47.4294 100 49.8246 97.5964 49.8246 94.6429L 64.7381 94.6429C 66.4161 94.6429 67.9625 93.875 68.9803 92.5375C 69.9982 91.2 70.3291 89.5 69.8878 87.8768L 66.3894 75L 76.5163 75L 76.5163 94.6429C 76.5163 97.5964 78.9114 100 81.8546 100L 101.429 100C 104.372 100 106.767 97.5964 106.767 94.6429L 106.767 53.5714C 106.767 50.6179 104.372 48.2143 101.429 48.2143ZM 46.2657 94.6429C 46.2657 95.6268 45.4667 96.4286 44.4862 96.4286L 5.33835 96.4286C 4.35787 96.4286 3.5589 95.6268 3.5589 94.6429L 3.5589 91.0714L 46.2657 91.0714L 46.2657 94.6429ZM 46.2657 87.5L 3.5589 87.5L 3.5589 48.2143L 46.2657 48.2143L 46.2657 87.5ZM 46.2657 44.6429L 3.5589 44.6429L 3.5589 41.0714C 3.5589 40.0875 4.35787 39.2857 5.33835 39.2857L 44.4862 39.2857C 45.4667 39.2857 46.2657 40.0875 46.2657 41.0714L 46.2657 44.6429ZM 66.4553 88.8161C 66.603 89.3571 66.4927 89.9232 66.1528 90.3696C 65.8129 90.8161 65.2986 91.0714 64.7381 91.0714L 49.8246 91.0714L 49.8246 87.5L 66.0976 87.5L 66.4553 88.8161ZM 49.8246 83.9286L 49.8246 75L 62.7007 75L 65.1278 83.9286L 49.8246 83.9286ZM 76.5163 71.4286L 49.8246 71.4286L 49.8246 60.7143L 76.5163 60.7143L 76.5163 71.4286ZM 76.5163 53.5714L 76.5163 57.1429L 49.8246 57.1429L 49.8246 41.0714C 49.8246 38.1179 47.4294 35.7143 44.4862 35.7143L 8.89724 35.7143L 8.89724 8.92857C 8.89724 5.975 11.2924 3.57143 14.2356 3.57143L 92.5313 3.57143C 95.4745 3.57143 97.8697 5.975 97.8697 8.92857L 97.8697 48.2143L 81.8546 48.2143C 78.9114 48.2143 76.5163 50.6179 76.5163 53.5714ZM 103.208 94.6429C 103.208 95.6268 102.409 96.4286 101.429 96.4286L 81.8546 96.4286C 80.8742 96.4286 80.0752 95.6268 80.0752 94.6429L 80.0752 91.0714L 103.208 91.0714L 103.208 94.6429ZM 103.208 87.5L 80.0752 87.5L 80.0752 60.7143L 103.208 60.7143L 103.208 87.5ZM 103.208 57.1429L 80.0752 57.1429L 80.0752 53.5714C 80.0752 52.5875 80.8742 51.7857 81.8546 51.7857L 101.429 51.7857C 102.409 51.7857 103.208 52.5875 103.208 53.5714L 103.208 57.1429Z"/>
<path id="path1_fill" d="M 10.0841 -2.66561e-06L 0 -2.66561e-06L 0 3.56517L 10.0841 3.56517L 10.0841 -2.66561e-06Z"/>
<path id="path2_fill" d="M 30.252 0L 0 0L 0 3.56517L 30.252 3.56517L 30.252 0Z"/>
<path id="path3_fill" d="M 15.125 0L 0 0L 0 3.56517L 15.125 3.56517L 15.125 0Z"/>
<path id="path4_fill" d="M 12.6026 0L -2.99201e-06 0L -2.99201e-06 3.56517L 12.6026 3.56517L 12.6026 0Z"/>
<path id="path5_fill" d="M 12.6026 0L 0 0L 0 3.56517L 12.6026 3.56517L 12.6026 0Z"/>
<path id="path6_fill" d="M 15.125 0L 0 0L 0 3.56517L 15.125 3.56517L 15.125 0Z"/>
<path id="path7_fill" d="M 15.125 0L 0 0L 0 3.56517L 15.125 3.56517L 15.125 0Z"/>
<path id="path8_fill" d="M 10.0841 0L 0 0L 0 3.56517L 10.0841 3.56517L 10.0841 0Z"/>
<path id="path9_fill" d="M 10.109 0L 0 0L 0 3.56517L 10.109 3.56517L 10.109 0Z"/>
<path id="path10_fill" d="M 3.5589 0L 0 0L 0 3.57143L 3.5589 3.57143L 3.5589 0Z"/>
</defs>
</svg>
