<?xml version="1.0" encoding="UTF-8" standalone="no"?>
<svg xmlns:rdf="http://www.w3.org/1999/02/22-rdf-syntax-ns#" xmlns="http://www.w3.org/2000/svg" height="333.68" width="277" version="1.1" xmlns:cc="http://creativecommons.org/ns#" xmlns:xlink="http://www.w3.org/1999/xlink"  xmlns:dc="http://purl.org/dc/elements/1.1/" preserveAspectRatio="none">
 <g transform="translate(-388 -3629)">
  <use xlink:href="#a" transform="translate(389,3630)" height="100%" width="100%" y="0" x="0" fill="#ffffff"/>
  <mask id="c">
   <use xlink:href="#a" transform="translate(389,3630)" height="100%" width="100%" y="0" x="0" fill="#ffffff"/>
  </mask>
  <g mask="url(#c)">
   <use xlink:href="#b" transform="translate(389,3630)" height="100%" width="100%" y="0" x="0" fill="#e0e0e0"/>
  </g>
 </g>
 <defs>
  <path id="a" d="m275 13.657v-10.063c0-1.986-1.61-3.594-3.59-3.594h-267.81c-1.99-0.0000057373-3.6 1.608-3.6 3.594v10.063c3.171 0 5.74 2.568 5.74 5.74s-2.569 5.74-5.74 5.74v3.936c3.171 0 5.74 2.568 5.74 5.74s-2.569 5.741-5.74 5.741v3.936c3.171 0 5.74 2.568 5.74 5.74s-2.569 5.74-5.74 5.74v3.936c3.171 0 5.74 2.568 5.74 5.74s-2.569 5.74-5.74 5.74v3.937c3.171 0 5.74 2.568 5.74 5.74s-2.569 5.74-5.74 5.74v3.934c3.171 0 5.74 2.568 5.74 5.74s-2.569 5.741-5.74 5.741v3.936c3.171-0.01 5.74 2.56 5.74 5.73 0 3.172-2.569 5.74-5.74 5.74v1.366 2.569 0.064c3.16 0 5.721 2.55 5.739 5.71-0.018 3.157-2.579 5.708-5.739 5.708v0.064 2.569 1.366c3.171 0 5.74 2.57 5.74 5.74 0 3.172-2.568 5.74-5.74 5.74v3.936c3.171-0.01 5.74 2.56 5.74 5.73 0 3.172-2.568 5.74-5.74 5.74v3.934c3.171 0.01 5.74 2.58 5.74 5.75 0 3.172-2.568 5.74-5.74 5.74v3.937c3.171 0 5.74 2.56 5.74 5.74 0 3.172-2.568 5.74-5.74 5.74v1.222 2.633 0.081c3.157-0.01 5.716 2.54 5.738 5.69-0.022 3.153-2.58 5.7-5.738 5.7v0.081 3.855 0.081c3.157 0 5.716 2.55 5.738 5.7-0.022 3.153-2.58 5.7-5.738 5.7v0.081 3.854 0.081c3.157-0.01 5.716 2.54 5.738 5.69-0.022 3.153-2.58 5.7-5.738 5.7v0.081 3.063 0.791c3.171 0 5.74 2.57 5.74 5.74 0 3.172-2.568 5.74-5.74 5.74v3.937c3.171 0 5.74 2.56 5.74 5.74 0 3.172-2.568 5.74-5.74 5.74v3.936c3.171-0.01 5.74 2.56 5.74 5.73 0 3.172-2.568 5.74-5.74 5.74v3.936c3.171 0 5.74 2.57 5.74 5.74 0 3.172-2.568 5.74-5.74 5.74v3.936c3.171 0 5.74 2.56 5.74 5.74 0 3.172-2.569 5.74-5.74 5.74v10.063c0 1.986 1.608 3.594 3.594 3.594h267.81c1.985 0 3.595-1.608 3.595-3.594v-10.063c-3.171 0-5.74-2.568-5.74-5.74s2.569-5.74 5.74-5.74v-3.936c-3.171 0-5.74-2.568-5.74-5.74s2.569-5.741 5.74-5.741v-3.936c-3.171 0-5.74-2.568-5.74-5.74s2.569-5.74 5.74-5.74v-3.936c-3.171 0-5.74-2.568-5.74-5.74s2.569-5.74 5.74-5.74v-3.937c-3.171 0-5.74-2.568-5.74-5.74s2.569-5.74 5.74-5.74v-0.791-3.063-0.081c-3.157 0-5.716-2.547-5.738-5.7 0.022-3.153 2.581-5.7 5.738-5.7v-0.081-3.854-0.081c-3.157 0-5.716-2.547-5.738-5.7 0.022-3.153 2.581-5.7 5.738-5.7v-0.081-3.855-0.081c-3.157 0-5.716-2.547-5.738-5.7 0.022-3.153 2.581-5.7 5.738-5.7v-0.081-2.633-1.222c-3.171 0-5.74-2.568-5.74-5.74s2.569-5.74 5.74-5.74v-3.937c-3.171 0-5.74-2.568-5.74-5.74s2.569-5.74 5.74-5.74v-3.934c-3.171 0-5.74-2.568-5.74-5.74s2.569-5.741 5.74-5.741v-3.936c-3.171 0-5.74-2.568-5.74-5.74s2.569-5.74 5.74-5.74v-1.364-2.569-0.064c-3.16 0-5.722-2.551-5.738-5.708 0.017-3.157 2.578-5.708 5.738-5.708v-0.064-2.569-1.366c-3.171 0-5.74-2.568-5.74-5.74s2.568-5.74 5.74-5.74v-3.936c-3.171 0-5.74-2.568-5.74-5.741 0-3.172 2.568-5.74 5.74-5.74v-3.934c-3.171 0-5.74-2.568-5.74-5.74s2.568-5.74 5.74-5.74v-3.937c-3.171 0-5.74-2.568-5.74-5.74s2.568-5.74 5.74-5.74v-3.936c-3.171 0-5.74-2.568-5.74-5.74s2.568-5.74 5.74-5.74v-3.936c-3.171 0-5.74-2.568-5.74-5.741 0-3.172 2.568-5.74 5.74-5.74v-3.936c-3.171 0-5.74-2.568-5.74-5.74s2.568-5.742 5.739-5.742z"/>
  <path id="b" d="m275 13.657v1h1v-1h-1zm-275 0h-1v1h1v-1zm0 11.48v-1h-1v1h1zm0 3.936h-1v1h1v-1zm0 11.481v-1h-1v1h1zm0 3.936h-1v1h1v-1zm0 11.48v-1h-1v1h1zm0 3.936h-1v1h1v-1zm0 11.48v-1h-1v1h1zm0 3.937h-1v1h1v-1zm0 11.48v-1h-1v1h1zm0 3.934h-1v1h1v-1zm0 11.481v-1h-1v1h1zm0 3.936h-1v1h1v-1zm0 11.48v-1h-1v1h1zm0 3.999h-1v1h1v-1zm5.739 5.7l1 0.006-0.00006-0.012-0.99999 0.006zm-5.739 5.708v-1h-1v1h1zm0 3.999h-1v1h1v-1zm0 11.48v-1h-1v1h1zm0 3.936h-1v1h1v-1zm0 11.481v-1h-1v1h1zm0 3.934h-1v1h1v-1zm0 11.48v-1h-1v1h1zm0 3.937h-1v1h1v-1zm0 11.48v-1h-1v1h1zm0 3.936h-1v1h1v-1zm5.738 5.69l1.0001 0.007-0.00009-0.014-0.99998 0.007zm-5.738 5.7v-1h-1v1h1zm0 4.017h-1v1h1v-1zm5.738 5.7l1.0001 0.007-0.00009-0.014-0.99998 0.007zm-5.738 5.7v-1h-1v1h1zm0 4.016h-1v1h1v-1zm5.738 5.69l1.0001 0.007-0.00009-0.014-0.99998 0.007zm-5.738 5.7v-1h-1v1h1zm0 3.935h-1v1h1v-1zm0 11.48v-1h-1v1h1zm0 3.937h-1v1h1v-1zm0 11.48v-1h-1v1h1zm0 3.936h-1v1h1v-1zm0 11.48v-1h-1v1h1zm0 3.936h-1v1h1v-1zm0 11.481v-1h-1v1h1zm0 3.936h-1v1h1v-1zm0 11.48v-1h-1v1h1zm275 0h1v-1h-1v1zm0-11.48v1h1v-1h-1zm0-3.936h1v-1h-1v1zm0-11.481v1h1v-1h-1zm0-3.936h1v-1h-1v1zm0-11.48v1h1v-1h-1zm0-3.936h1v-1h-1v1zm0-11.48v1h1v-1h-1zm0-3.937h1v-1h-1v1zm0-11.48v1h1v-1h-1zm0-3.935h1v-1h-1v1zm-5.738-5.7-1-0.007v0.014l1-0.007zm5.738-5.7v1h1v-1h-1zm0-4.016h1v-1h-1v1zm-5.738-5.7-1-0.007v0.014l1-0.007zm5.738-5.7v1h1v-1h-1zm0-4.017h1v-1h-1v1zm-5.738-5.7-1-0.007v0.014l1-0.007zm5.738-5.7v1h1v-1h-1zm0-3.936h1v-1h-1v1zm0-11.48v1h1v-1h-1zm0-3.937h1v-1h-1v1zm0-11.48v1h1v-1h-1zm0-3.934h1v-1h-1v1zm0-11.481v1h1v-1h-1zm0-3.936h1v-1h-1v1zm0-11.48v1h1v-1h-1zm0-3.997h1v-1h-1v1zm-5.738-5.708-1-0.005v0.01l1-0.005zm5.738-5.708v1h1v-1h-1zm0-3.999h1v-1h-1v1zm0-11.48v1h1v-1h-1zm0-3.936h1v-1h-1v1zm0-11.481v1h1v-1h-1zm0-3.934h1v-1h-1v1zm0-11.48v1h1v-1h-1zm0-3.937h1v-1h-1v1zm0-11.48v1h1v-1h-1zm0-3.936h1v-1h-1v1zm0-11.48v1h1v-1h-1zm0-3.936h1v-1h-1v1zm0-11.481v1h1v-1h-1zm0-3.936h1v-1h-1v1zm1-11.452v-10.063h-2v10.063h2zm0-10.063c0-2.5383-2.056-4.594-4.594-4.594v2c1.434 0 2.594 1.1603 2.594 2.594h2zm-4.594-4.594h-267.81v2h267.81v-2zm-267.81 0c-2.5368 0-4.595 2.0552-4.595 4.594h2c0-1.4332 1.1617-2.594 2.595-2.594v-2zm-4.595 4.594v10.063h2v-10.063h-2zm0.99499 11.063c2.6188 0 4.74 2.12 4.74 4.74h2c0-3.7244-3.0168-6.74-6.74-6.74v2zm4.74 4.74c0 2.6196-2.1212 4.74-4.74 4.74v2c3.7232 0 6.74-3.016 6.74-6.74h-2zm-5.74 5.74v3.936h2v-3.936h-2zm0.99999 4.936c2.6188 0 4.74 2.12 4.74 4.74h2c0-3.7244-3.0168-6.74-6.74-6.74v2zm4.74 4.74c0 2.6198-2.1214 4.741-4.74 4.741v2c3.7234 0 6.74-3.017 6.74-6.741h-2zm-5.74 5.741v3.936h2v-3.936h-2zm0.99999 4.936c2.6188 0 4.74 2.12 4.74 4.74h2c0-3.724-3.0168-6.74-6.74-6.74v2zm4.74 4.74c0 2.6196-2.1212 4.74-4.74 4.74v2c3.7232 0 6.74-3.016 6.74-6.74h-2zm-5.74 5.74v3.936h2v-3.936h-2zm0.99999 4.936c2.6188 0 4.74 2.12 4.74 4.74h2c0-3.7244-3.0168-6.74-6.74-6.74v2zm4.74 4.74c0 2.6196-2.1212 4.74-4.74 4.74v2c3.7232 0 6.74-3.016 6.74-6.74h-2zm-5.74 5.74v3.937h2v-3.937h-2zm0.99999 4.937c2.6188 0 4.74 2.12 4.74 4.74h2c0-3.7244-3.0168-6.74-6.74-6.74v2zm4.74 4.74c0 2.6196-2.1212 4.74-4.74 4.74v2c3.7232 0 6.74-3.016 6.74-6.74h-2zm-5.74 5.74v3.934h2v-3.934h-2zm0.99999 4.934c2.6188 0 4.74 2.12 4.74 4.74h2c0-3.7244-3.0168-6.74-6.74-6.74v2zm4.74 4.74c0 2.6198-2.1214 4.741-4.74 4.741v2c3.7234 0 6.74-3.02 6.74-6.743h-2zm-5.74 5.741v3.936h2v-3.936h-2zm0.99999 4.93c2.6188 0 4.74 2.12 4.74 4.74h2c0-3.724-3.0168-6.74-6.74-6.74v2zm4.74 4.74c0 2.62-2.1212 4.74-4.74 4.74v2c3.7232 0 6.74-3.01 6.74-6.74h-2zm-5.74 5.74v1.366h2v-1.366h-2zm0 1.366v2.569h2v-2.569h-2zm0 2.569v0.064h2v-0.064h-2zm0.99999 1.06c2.6092 0 4.7241 2.11 4.739 4.72l2-0.012c-0.0212-3.71-3.0282-6.71-6.739-6.71v2zm4.739 4.71c-0.01487 2.608-2.1298 4.714-4.739 4.714v2c3.7108 0 6.7178-3 6.739-6.7l-2-0.012zm-5.739 5.714v0.064h2v-0.064h-2zm0 0.064v2.569h2v-2.569h-2zm0 2.569v1.366h2v-1.366h-2zm0.99999 2.37c2.6188 0 4.74 2.12 4.74 4.74h2c0-3.724-3.0168-6.74-6.74-6.74v2zm4.74 4.74c0 2.62-2.1203 4.74-4.74 4.74v2c3.7243 0 6.74-3.02 6.74-6.74h-2zm-5.74 5.74v3.936h2v-3.936h-2zm0.99999 4.93c2.6187 0 4.74 2.12 4.74 4.74h2c0-3.725-3.0167-6.741-6.74-6.741v2zm4.74 4.74c0 2.62-2.1203 4.74-4.74 4.74v2c3.7243 0 6.74-3.01 6.74-6.74h-2zm-5.74 5.74v3.934h2v-3.934h-2zm0.99999 4.94c2.6188 0 4.74 2.12 4.74 4.74h2c0-3.724-3.0168-6.74-6.74-6.74v2zm4.74 4.74c0 2.62-2.1203 4.74-4.74 4.74v2c3.7243 0 6.74-3.02 6.74-6.74h-2zm-5.74 5.74v3.937h2v-3.937h-2zm0.99999 4.94c2.6188 0 4.74 2.12 4.74 4.74h2c0-3.724-3.0168-6.74-6.74-6.74v2zm4.74 4.74c0 2.62-2.1203 4.74-4.74 4.74v2c3.7243 0 6.74-3.02 6.74-6.74h-2zm-5.74 5.74v1.222h2v-1.222h-2zm0 1.222v2.633h2v-2.633h-2zm0 2.633v0.081h2v-0.081h-2zm0.99999 1.08c2.6066 0 4.7198 2.11 4.738 4.71l2-0.014c-0.0258-3.71-3.0306-6.7-6.738-6.7v2zm4.738 4.69c-0.01818 2.604-2.1306 4.707-4.738 4.707v2c3.7086 0 6.7122-2.99 6.738-6.69l-2-0.014zm-5.738 5.707v0.081h2v-0.081h-2zm0 0.081v3.855h2v-3.855h-2zm0 3.855v0.081h2v-0.081h-2zm0.99999 1.09c2.6066 0 4.7198 2.1 4.738 4.71l2-0.014c-0.0258-3.71-3.0306-6.7-6.738-6.7v2zm4.738 4.69c-0.01818 2.604-2.1306 4.707-4.738 4.707v2c3.7086 0 6.7122-2.99 6.738-6.69l-2-0.014zm-5.738 5.707v0.081h2v-0.081h-2zm0 0.081v3.854h2v-3.854h-2zm0 3.854v0.081h2v-0.081h-2zm0.99999 1.08c2.6066 0 4.7198 2.11 4.738 4.71l2-0.014c-0.0258-3.7-3.0306-6.7-6.738-6.7v2zm4.738 4.7c-0.01818 2.604-2.1306 4.707-4.738 4.707v2c3.7085-0.01 6.7122-3 6.738-6.7l-2-0.014zm-5.738 5.707v0.081h2v-0.081h-2zm0 0.081v3.063h2v-3.063h-2zm0 3.063v0.791h2v-0.791h-2zm0.99999 1.79c2.6188 0 4.74 2.12 4.74 4.74h2c0-3.724-3.0168-6.74-6.74-6.74v2zm4.74 4.74c0 2.62-2.1203 4.74-4.74 4.74v2c3.7243 0 6.74-3.02 6.74-6.74h-2zm-5.74 5.74v3.937h2v-3.937h-2zm0.99999 4.94c2.6188 0 4.74 2.12 4.74 4.74h2c0-3.724-3.0168-6.74-6.74-6.74v2zm4.74 4.74c0 2.62-2.1203 4.74-4.74 4.74v2c3.7243 0 6.74-3.02 6.74-6.74h-2zm-5.74 5.74v3.936h2v-3.936h-2zm0.99999 4.93c2.6188 0 4.74 2.12 4.74 4.74h2c0-3.724-3.0168-6.74-6.74-6.74v2zm4.74 4.74c0 2.62-2.1203 4.74-4.74 4.74v2c3.7243 0 6.74-3.01 6.74-6.74h-2zm-5.74 5.74v3.936h2v-3.936h-2zm0.99999 4.94c2.6187 0 4.74 2.12 4.74 4.74h2c0-3.725-3.0167-6.741-6.74-6.741v2zm4.74 4.74c0 2.62-2.1203 4.74-4.74 4.74v2c3.7243 0 6.74-3.02 6.74-6.74h-2zm-5.74 5.74v3.936h2v-3.936h-2zm0.99999 4.94c2.6188 0 4.74 2.12 4.74 4.74h2c0-3.724-3.0168-6.74-6.74-6.74v2zm4.74 4.74c0 2.62-2.1212 4.74-4.74 4.74v2c3.7232 0 6.74-3.02 6.74-6.74h-2zm-5.74 5.74v10.063h2v-10.063h-2zm0 10.063c0 2.538 2.0557 4.594 4.594 4.594v-2c-1.4337 0-2.594-1.16-2.594-2.594h-2zm4.594 4.594h267.81v-2h-267.81v2zm267.81 0c2.537 0 4.595-2.055 4.595-4.594h-2c0 1.433-1.162 2.594-2.595 2.594v2zm4.595-4.594v-10.063h-2v10.063h2zm-1-11.063c-2.619 0-4.74-2.12-4.74-4.74h-2c0 3.724 3.017 6.74 6.74 6.74v-2zm-4.74-4.74c0-2.62 2.121-4.74 4.74-4.74v-2c-3.723 0-6.74 3.016-6.74 6.74h2zm5.74-5.74v-3.936h-2v3.936h2zm-1-4.936c-2.619 0-4.74-2.12-4.74-4.74h-2c0 3.724 3.017 6.74 6.74 6.74v-2zm-4.74-4.74c0-2.62 2.121-4.741 4.74-4.741v-2c-3.723 0-6.74 3.017-6.74 6.741h2zm5.74-5.741v-3.936h-2v3.936h2zm-1-4.936c-2.619 0-4.74-2.12-4.74-4.74h-2c0 3.724 3.017 6.74 6.74 6.74v-2zm-4.74-4.74c0-2.62 2.121-4.74 4.74-4.74v-2c-3.723 0-6.74 3.016-6.74 6.74h2zm5.74-5.74v-3.936h-2v3.936h2zm-1-4.936c-2.619 0-4.74-2.12-4.74-4.74h-2c0 3.724 3.017 6.74 6.74 6.74v-2zm-4.74-4.74c0-2.62 2.121-4.74 4.74-4.74v-2c-3.723 0-6.74 3.016-6.74 6.74h2zm5.74-5.74v-3.937h-2v3.937h2zm-1-4.937c-2.619 0-4.74-2.12-4.74-4.74h-2c0 3.724 3.017 6.74 6.74 6.74v-2zm-4.74-4.74c0-2.62 2.121-4.74 4.74-4.74v-2c-3.723 0-6.74 3.016-6.74 6.74h2zm5.74-5.74v-0.791h-2v0.791h2zm0-0.791v-3.063h-2v3.063h2zm0-3.063v-0.081h-2v0.081h2zm-1-1.081c-2.607 0-4.72-2.103-4.738-4.707l-2 0.014c0.026 3.702 3.031 6.693 6.738 6.693v-2zm-4.738-4.693c0.018-2.604 2.131-4.707 4.738-4.707v-2c-3.707 0-6.712 2.991-6.738 6.693l2 0.014zm5.738-5.707v-0.081h-2v0.081h2zm0-0.081v-3.854h-2v3.854h2zm0-3.854v-0.081h-2v0.081h2zm-1-1.081c-2.607 0-4.72-2.103-4.738-4.707l-2 0.014c0.026 3.702 3.031 6.693 6.738 6.693v-2zm-4.738-4.693c0.018-2.604 2.131-4.707 4.738-4.707v-2c-3.707 0-6.712 2.991-6.738 6.693l2 0.014zm5.738-5.707v-0.081h-2v0.081h2zm0-0.081v-3.855h-2v3.855h2zm0-3.855v-0.081h-2v0.081h2zm-1-1.081c-2.607 0-4.72-2.103-4.738-4.707l-2 0.014c0.026 3.702 3.031 6.693 6.738 6.693v-2zm-4.738-4.693c0.018-2.604 2.131-4.707 4.738-4.707v-2c-3.707 0-6.712 2.991-6.738 6.693l2 0.014zm5.738-5.707v-0.081h-2v0.081h2zm0-0.081v-2.633h-2v2.633h2zm0-2.633v-1.222h-2v1.222h2zm-1-2.222c-2.619 0-4.74-2.12-4.74-4.74h-2c0 3.724 3.017 6.74 6.74 6.74v-2zm-4.74-4.74c0-2.62 2.121-4.74 4.74-4.74v-2c-3.723 0-6.74 3.016-6.74 6.74h2zm5.74-5.74v-3.937h-2v3.937h2zm-1-4.937c-2.619 0-4.74-2.12-4.74-4.74h-2c0 3.724 3.017 6.74 6.74 6.74v-2zm-4.74-4.74c0-2.62 2.121-4.74 4.74-4.74v-2c-3.723 0-6.74 3.016-6.74 6.74h2zm5.74-5.74v-3.934h-2v3.934h2zm-1-4.934c-2.619 0-4.74-2.12-4.74-4.74h-2c0 3.724 3.017 6.74 6.74 6.74v-2zm-4.74-4.74c0-2.62 2.121-4.741 4.74-4.741v-2c-3.723 0-6.74 3.017-6.74 6.741h2zm5.74-5.741v-3.936h-2v3.936h2zm-1-4.936c-2.619 0-4.74-2.12-4.74-4.74h-2c0 3.724 3.017 6.74 6.74 6.74v-2zm-4.74-4.74c0-2.62 2.121-4.74 4.74-4.74v-2c-3.723 0-6.74 3.016-6.74 6.74h2zm5.74-5.74v-1.364h-2v1.364h2zm0-1.364v-2.569h-2v2.569h2zm0-2.569v-0.064h-2v0.064h2zm-1-1.064c-2.61 0-4.725-2.106-4.738-4.713l-2 0.01c0.019 3.707 3.028 6.703 6.738 6.703v-2zm-4.738-4.703c0.014-2.607 2.129-4.713 4.738-4.713v-2c-3.711 0-6.718 2.996-6.738 6.703l2 0.01zm5.738-5.713v-0.064h-2v0.064h2zm0-0.064v-2.569h-2v2.569h2zm0-2.569v-1.366h-2v1.366h2zm-1-2.366c-2.619 0-4.74-2.12-4.74-4.74h-2c0 3.724 3.017 6.74 6.74 6.74v-2zm-4.74-4.74c0-2.62 2.12-4.74 4.74-4.74v-2c-3.724 0-6.74 3.016-6.74 6.74h2zm5.74-5.74v-3.936h-2v3.936h2zm-1-4.936c-2.619 0-4.74-2.1203-4.74-4.741h-2c0 3.725 3.017 6.741 6.74 6.741v-2zm-4.74-4.741c0-2.6197 2.12-4.74 4.74-4.74v-2c-3.724 0-6.74 3.0157-6.74 6.74h2zm5.74-5.74v-3.934h-2v3.934h2zm-1-4.934c-2.619 0-4.74-2.1204-4.74-4.74h-2c0 3.7244 3.017 6.74 6.74 6.74v-2zm-4.74-4.74c0-2.6197 2.12-4.74 4.74-4.74v-2c-3.724 0-6.74 3.0157-6.74 6.74h2zm5.74-5.74v-3.937h-2v3.937h2zm-1-4.937c-2.619 0-4.74-2.1204-4.74-4.74h-2c0 3.7244 3.017 6.74 6.74 6.74v-2zm-4.74-4.74c0-2.6197 2.12-4.74 4.74-4.74v-2c-3.724 0-6.74 3.0157-6.74 6.74h2zm5.74-5.74v-3.936h-2v3.936h2zm-1-4.936c-2.619 0-4.74-2.1204-4.74-4.74h-2c0 3.7244 3.017 6.74 6.74 6.74v-2zm-4.74-4.74c0-2.6197 2.12-4.74 4.74-4.74v-2c-3.724 0-6.74 3.0157-6.74 6.74h2zm5.74-5.74v-3.936h-2v3.936h2zm-1-4.936c-2.619 0-4.74-2.1203-4.74-4.741h-2c0 3.7253 3.017 6.741 6.74 6.741v-2zm-4.74-4.741c0-2.6197 2.12-4.74 4.74-4.74v-2c-3.724 0-6.74 3.0157-6.74 6.74h2zm5.74-5.74v-3.936h-2v3.936h2zm-1-4.936c-2.619 0-4.74-2.1204-4.74-4.74h-2c0 3.7244 3.017 6.74 6.74 6.74v-2zm-4.74-4.74c0-2.6203 2.121-4.742 4.739-4.742v-2c-3.724 0-6.739 3.0183-6.739 6.742h2z"/>
 </defs>
</svg>
