<svg width="101" height="100" viewBox="0 0 101 100" version="1.1" xmlns="http://www.w3.org/2000/svg" xmlns:xlink="http://www.w3.org/1999/xlink">
<title>airplane (1) 2</title>
<desc>Created using Figma</desc>
<g id="Canvas" transform="translate(-1290 -3149)">
<g id="airplane (1) 2">
<g id="Group">
<g id="Group">
<g id="Group">
<g id="Vector">
<use xlink:href="#path0_fill" transform="translate(1290 3167.37)" fill="#EF2141"/>
</g>
</g>
</g>
<g id="Group">
<g id="Group">
<g id="Vector">
<use xlink:href="#path1_fill" transform="translate(1362.4 3186.1)" fill="#EF2141"/>
</g>
</g>
</g>
<g id="Group">
<g id="Group">
<g id="Vector">
<use xlink:href="#path2_fill" transform="translate(1353.51 3190.72)" fill="#EF2141"/>
</g>
</g>
</g>
<g id="Group">
<g id="Group">
<g id="Vector">
<use xlink:href="#path3_fill" transform="translate(1344.62 3195.34)" fill="#EF2141"/>
</g>
</g>
</g>
<g id="Group">
<g id="Group">
<g id="Vector">
<use xlink:href="#path4_fill" transform="translate(1335.73 3199.97)" fill="#EF2141"/>
</g>
</g>
</g>
<g id="Group">
<g id="Group">
<g id="Vector">
<use xlink:href="#path5_fill" transform="translate(1326.84 3204.59)" fill="#EF2141"/>
</g>
</g>
</g>
<g id="Group">
<g id="Group">
<g id="Vector">
<use xlink:href="#path6_fill" transform="translate(1317.95 3209.22)" fill="#EF2141"/>
</g>
</g>
</g>
<g id="Group">
<g id="Group">
<g id="Vector">
<use xlink:href="#path7_fill" transform="translate(1309.06 3213.84)" fill="#EF2141"/>
</g>
</g>
</g>
<g id="Group">
<g id="Group">
<g id="Vector">
<use xlink:href="#path8_fill" transform="translate(1304.35 3232.51)" fill="#EF2141"/>
</g>
</g>
</g>
<g id="Group">
<g id="Group">
<g id="Vector">
<use xlink:href="#path9_fill" transform="translate(1344.43 3149)" fill="#EF2141"/>
</g>
</g>
</g>
</g>
</g>
</g>
<defs>
<path id="path0_fill" d="M 100.453 17.4635C 98.4105 13.5358 95.0876 10.5482 91.0141 8.93023C 90.5972 8.76378 90.1741 8.60857 89.746 8.47328C 85.0927 7.00481 80.1461 7.43592 75.8176 9.68753C 75.7983 9.69779 75.7788 9.70824 75.7599 9.71929L 55.0017 21.653L 34.4209 0.474408C 33.9391 -0.0213922 33.1891 -0.142089 32.5755 0.176415L 23.6853 4.80073C 22.9295 5.19378 22.6246 6.1552 23.0187 6.91251L 36.2834 32.4135L 15.9524 44.1017L 8.62015 36.4933C 8.13855 35.9935 7.38519 35.8703 6.77027 36.1908L 0.843547 39.2734C 0.0763778 39.6726 -0.222009 40.6178 0.176958 41.3852L 8.02969 56.4819C 9.4954 59.2999 12.3611 60.9275 15.3448 60.9273C 16.4995 60.9273 17.6726 60.6834 18.788 60.1698L 44.6014 48.4039L 58.4721 75.0698C 58.8656 75.8262 59.826 76.1307 60.5839 75.7364L 69.474 71.1121C 70.0873 70.7932 70.4189 70.1095 70.2897 69.4301L 64.5403 39.2411L 79.7943 32.3165C 80.5818 31.9591 80.9303 31.0308 80.5727 30.2435C 80.2153 29.4558 79.2869 29.1072 78.4998 29.4651L 62.1244 36.8988C 61.4663 37.1975 61.0983 37.9075 61.2333 38.6173L 66.9952 68.8714L 60.5277 72.2355L 46.6934 45.6399C 46.3091 44.9008 45.4131 44.5923 44.6548 44.9377L 17.4838 57.3226C 15.0015 58.4651 12.0691 57.4609 10.8081 55.0367L 3.67773 41.3292L 7.17733 39.5087L 14.5459 47.1546C 15.0443 47.6719 15.831 47.7831 16.4536 47.4253L 77.2916 12.4503C 79.629 11.2408 82.1396 10.7036 84.6022 10.7653L 79.6117 13.3613C 78.8445 13.7604 78.5461 14.7057 78.9451 15.4731L 82.028 21.3998C 82.4214 22.1561 83.3818 22.4606 84.1397 22.0664L 95.7309 16.0371C 96.4716 16.9001 97.1286 17.857 97.6754 18.9083C 98.0937 19.7126 97.7407 20.7302 96.9172 21.1042L 83.8331 27.0439C 83.0456 27.4012 82.6971 28.3295 83.0547 29.1168C 83.412 29.9043 84.3399 30.2526 85.1276 29.8952L 98.2117 23.9555C 100.644 22.8521 101.688 19.8364 100.453 17.4635ZM 39.0006 30.8515L 26.5194 6.8567L 32.9869 3.4926L 52.2005 23.2633L 39.0006 30.8515ZM 84.0837 18.5658L 82.4461 15.4172L 89.5466 11.7238C 90.4361 12.0559 91.2957 12.4704 92.1116 12.9651C 92.5216 13.2147 92.9202 13.4824 93.3053 13.7691L 84.0837 18.5658Z"/>
<path id="path1_fill" d="M 5.9157 0.843405C 5.51693 0.0766306 4.57128 -0.222151 3.80431 0.177014L 0.841144 1.71865C 0.143395 2.08172 -0.181418 2.93705 0.102572 3.67108C 0.434486 4.52917 1.46809 4.92241 2.28614 4.49682L 5.24931 2.95519C 6.01628 2.55602 6.31466 1.61057 5.9157 0.843405Z"/>
<path id="path2_fill" d="M 5.9157 0.843565C 5.51693 0.0763961 4.57128 -0.222188 3.80431 0.177174L 0.841143 1.71881C 0.143394 2.08188 -0.181419 2.93721 0.102572 3.67125C 0.434486 4.52933 1.46809 4.92258 2.28614 4.49699L 5.24931 2.95535C 6.01647 2.55599 6.31467 1.61073 5.9157 0.843565Z"/>
<path id="path3_fill" d="M 5.9157 0.843443C 5.51693 0.0764715 4.57128 -0.222116 3.80431 0.177049L 0.841143 1.71829C 0.143394 2.08136 -0.18142 2.93669 0.102571 3.67073C 0.434485 4.52881 1.46809 4.92206 2.28614 4.49647L 5.24931 2.95523C 6.01628 2.55606 6.31467 1.61081 5.9157 0.843443Z"/>
<path id="path4_fill" d="M 5.9159 0.843318C 5.51713 0.0765438 4.57148 -0.22204 3.80451 0.176927L 0.841144 1.71817C 0.143395 2.08124 -0.181418 2.93657 0.102572 3.6706C 0.434486 4.52869 1.46809 4.92194 2.28614 4.49635L 5.24931 2.95511C 6.01667 2.55574 6.31487 1.61049 5.9159 0.843318Z"/>
<path id="path5_fill" d="M 5.9159 0.843442C 5.51693 0.0764708 4.57167 -0.222113 3.80451 0.177051L 0.841143 1.71829C 0.143394 2.08137 -0.181419 2.93669 0.102571 3.67073C 0.434485 4.52881 1.46809 4.92206 2.28614 4.49647L 5.24931 2.95523C 6.01648 2.55606 6.31487 1.61081 5.9159 0.843442Z"/>
<path id="path6_fill" d="M 5.9159 0.843442C 5.51713 0.0764703 4.57148 -0.222114 3.80451 0.177051L 0.841143 1.71868C 0.143394 2.08176 -0.18142 2.93709 0.102571 3.67112C 0.434485 4.52921 1.46809 4.92245 2.28614 4.49686L 5.24931 2.95523C 6.01667 2.55606 6.31487 1.61061 5.9159 0.843442Z"/>
<path id="path7_fill" d="M 5.91609 0.843442C 5.51713 0.0764699 4.57187 -0.222114 3.8047 0.17705L 0.841144 1.71868C 0.143395 2.08176 -0.181419 2.93709 0.102572 3.67112C 0.434486 4.52921 1.46809 4.92245 2.28614 4.49686L 5.2497 2.95523C 6.01667 2.55587 6.31506 1.61061 5.91609 0.843442Z"/>
<path id="path8_fill" d="M 27.4528 6.68048L 26.8225 6.68048C 25.9011 4.68703 23.8773 3.34024 21.6073 3.34024C 21.0394 3.34024 20.4846 3.42208 19.9545 3.58163C 18.8625 1.42468 16.6379 1.5889e-06 14.0917 1.5889e-06C 11.5858 1.5889e-06 9.35492 1.41936 8.24933 3.55619C 7.7062 3.4136 7.14394 3.34024 6.57616 3.34024C 2.95015 3.34024 3.12964e-07 6.29039 3.12964e-07 9.9164C 3.12964e-07 13.5424 2.95015 16.4926 6.57616 16.4926L 27.453 16.4926C 30.1582 16.4926 32.3591 14.2916 32.3591 11.5864C 32.3589 8.88141 30.158 6.68048 27.4528 6.68048ZM 27.4528 13.3612L 6.57596 13.3612C 4.67658 13.3612 3.13119 11.8158 3.13119 9.9164C 3.13119 8.01701 4.67658 6.47163 6.57596 6.47163C 7.20705 6.47163 7.82374 6.6434 8.35918 6.96842C 9.27781 7.52595 10.508 6.97631 10.7092 5.92396C 11.0186 4.30581 12.441 3.13139 14.0913 3.13139C 15.7984 3.13139 17.2294 4.35275 17.4936 6.03559C 17.6755 7.19246 19.0792 7.74919 20.0048 7.0264C 20.4688 6.66352 21.023 6.47183 21.6071 6.47183C 22.8435 6.47183 23.9189 7.34924 24.1644 8.55778C 24.3127 9.28768 24.9543 9.81207 25.699 9.81207L 27.4528 9.81207C 28.4314 9.81207 29.2274 10.608 29.2274 11.5866C 29.2272 12.5654 28.4314 13.3612 27.4528 13.3612Z"/>
<path id="path9_fill" d="M 27.453 6.68048L 26.8227 6.68048C 25.9013 4.68703 23.8775 3.34024 21.6075 3.34024C 21.0396 3.34024 20.4848 3.42209 19.9547 3.58163C 18.8623 1.42488 16.6379 5.64239e-09 14.0917 5.64239e-09C 11.5858 5.64239e-09 9.35493 1.41936 8.24934 3.55619C 7.7062 3.41361 7.14394 3.34024 6.57616 3.34024C 2.95015 3.34024 -8.6667e-07 6.29039 -8.6667e-07 9.9164C -8.6667e-07 13.5424 2.95015 16.4926 6.57616 16.4926L 27.453 16.4926C 30.1582 16.4926 32.3591 14.2916 32.3591 11.5864C 32.359 8.88141 30.1582 6.68048 27.453 6.68048ZM 27.4526 13.3616L 6.57596 13.3616C 4.67657 13.3616 3.13119 11.8162 3.13119 9.91679C 3.13119 8.01741 4.67677 6.47163 6.57616 6.47163C 7.20725 6.47163 7.82394 6.64341 8.35938 6.96842C 9.27821 7.52575 10.5082 6.9765 10.7094 5.92396C 11.0188 4.30581 12.4412 3.13139 14.0915 3.13139C 15.7985 3.13139 17.2294 4.35275 17.4938 6.03559C 17.6757 7.19226 19.0796 7.74939 20.005 7.0264C 20.469 6.66352 21.0232 6.47183 21.6073 6.47183C 22.8437 6.47183 23.9191 7.34924 24.1646 8.55778C 24.3129 9.28767 24.9545 9.81207 25.6992 9.81207L 27.453 9.81207C 28.4316 9.81207 29.2276 10.608 29.2276 11.5866C 29.2276 12.5652 28.4312 13.3616 27.4526 13.3616Z"/>
</defs>
</svg>
